<svg xmlns="http://www.w3.org/2000/svg" xmlns:xlink="http://www.w3.org/1999/xlink" width="565.966" height="478.036" viewBox="0 0 565.966 478.036"><defs><style>.a{fill:url(#a);}.b{fill:url(#e);}.c{fill:#8f8f8f;}.d{fill:#f0f0f0;}.e{fill:#fff;}.f{fill:url(#s);}.g{fill:#ccc;}.h{fill:#f5f7ff;}.i{fill:#e6e6e6;}.j{fill:#78c2ff;}.k{fill:#f3f3f3;}.l{fill:url(#t);}.m{fill:url(#u);}.n{fill:url(#v);}.o{fill:url(#x);}.p{fill:url(#y);}.q{fill:#eea886;}.r{fill:#db9c7c;}.s{fill:#323657;}.t{fill:#4da8f2;}.u{fill:#efaa88;}.v{fill:#424773;}.w{fill:#292c47;}.x{fill:#d88a51;}.y{fill:#e2d2ca;}.z{fill:#dfe1e8;}.aa{fill:#de9673;}.ab{fill:#2f4563;}.ac{fill:#1e2d40;}.ad{fill:#23344a;}.ae{fill:#41608a;}.af{fill:#eea987;}.ag{fill:#eb4747;}.ah{fill:#464240;}.ai{fill:#a77860;}.aj{fill:#6e6760;}.ak{fill:#5c544d;}.al{fill:#3c4145;}.am{fill:#33373b;}.an{fill:#fccca2;}.ao{fill:#d6d6d6;}.ap{fill:#c98462;}.aq{fill:#de9d7d;}.ar{fill:#1d3b54;}.as{fill:#434343;}.at{fill:#cf8c6c;}.au{fill:#eef0f7;}.av{fill:#e0e0e0;}.aw{fill:#b8b8b8;}.ax{fill:#d9d9d9;}.ay{fill:url(#z);}</style><linearGradient id="a" x1="1.344" y1="-0.318" x2="0.5" y2="1" gradientUnits="objectBoundingBox"><stop offset="0" stop-color="#00668d"/><stop offset="0.37" stop-color="#2ac4f4"/><stop offset="1" stop-color="#fff"/></linearGradient><linearGradient id="e" x1="0.5" x2="0.5" y2="1" gradientUnits="objectBoundingBox"><stop offset="0" stop-color="#f9a220"/><stop offset="1" stop-color="#f97020"/></linearGradient><linearGradient id="s" y1="0.5" x2="1" y2="0.5" gradientUnits="objectBoundingBox"><stop offset="0" stop-color="#0d95c9"/><stop offset="1" stop-color="#2ac4f4"/></linearGradient><linearGradient id="t" x1="0" y1="1.118" x2="1.379" y2="-0.131" xlink:href="#a"/><linearGradient id="u" x1="-24.056" y1="0.5" x2="-23.056" y2="0.5" xlink:href="#s"/><linearGradient id="v" x1="-32.154" y1="0.5" x2="-31.154" y2="0.5" xlink:href="#s"/><linearGradient id="x" x1="-0.038" y1="0.5" x2="0.962" y2="0.5" gradientUnits="objectBoundingBox"><stop offset="0" stop-color="#ff9340"/><stop offset="1" stop-color="#ffce45"/></linearGradient><linearGradient id="y" x1="-0.038" y1="0.5" x2="0.962" y2="0.5" gradientUnits="objectBoundingBox"><stop offset="0" stop-color="#c97332"/><stop offset="1" stop-color="#ffce45"/></linearGradient><linearGradient id="z" x1="1.11" y1="0.5" x2="0.09" y2="0.5" xlink:href="#s"/></defs><g transform="translate(-246.748 -135.671)"><g transform="translate(246.748 135.671)"><g transform="translate(37.184 151.401)"><path class="a" d="M476.7,732.923c6.957,15.181,10.866,29.547,5.743,35.955a8.316,8.316,0,0,1-.991,1.041c-3.946,3.476-11.706,3.554-24.807-1.62-34.868-13.773-36.523-37.543-43.575-60.755-6.952-22.922-31.237-19.049-31.856-18.945C437.8,668.888,464.894,707.186,476.7,732.923Z" transform="translate(-381.21 -683.161)"/><g transform="translate(49.582 21.157)"><path class="a" d="M612.155,824.227a8.329,8.329,0,0,1-.991,1.041c-6.55-3.945-19.091-12.311-25-21.7a139.444,139.444,0,0,1-7.619-14.688c-4.691-9.972-9.552-20.284-18.033-28.192l.946-1.02c8.675,8.1,13.587,18.529,18.34,28.622a135.789,135.789,0,0,0,7.541,14.536C593.1,811.987,605.77,820.385,612.155,824.227Z" transform="translate(-560.507 -759.667)"/></g></g><g transform="translate(84.824 119.006)"><path class="a" d="M595.273,654.375c-.41,1.01-.676,1.582-.7,1.646-.107-.557-.211-1.111-.317-1.645-4.652-23.833-10.872-26.323-29.522-47.172-19.074-21.324-8.1-41.188-8.1-41.188C620.524,584.478,599.616,643.721,595.273,654.375Z" transform="translate(-553.485 -566.016)"/><g transform="translate(18.673 24.893)"><path class="a" d="M644.125,719.5c-.41,1.01-.676,1.582-.7,1.646-.107-.557-.211-1.111-.317-1.645,2.07-20.6-10.36-44.782-14.266-49.12-4.041-4.493-6.531-10.671-7.472-13-.158-.386-.307-.754-.355-.839l.9-.509c.08.14.182.4.413.962.919,2.28,3.364,8.335,7.284,12.689C634.558,675.185,646.025,699.479,644.125,719.5Z" transform="translate(-621.01 -656.033)"/></g></g><g transform="translate(465.98 72.627)"><g transform="translate(14.83 20.46)"><path class="b" d="M1993.641,488.6l-7.876-12.894a2.243,2.243,0,0,1,3.829-2.339l5.569,9.118,14.8-8.762a2.243,2.243,0,1,1,2.285,3.861Z" transform="translate(-1985.436 -472.29)"/></g><path class="b" d="M1960.131,454.946a28.322,28.322,0,1,1,28.321-28.322A28.354,28.354,0,0,1,1960.131,454.946Zm0-52.6a24.276,24.276,0,1,0,24.275,24.275A24.3,24.3,0,0,0,1960.131,402.349Z" transform="translate(-1931.809 -398.303)"/></g><g transform="translate(387.07 45.018)"><g transform="translate(9.165 12.644)"><path class="b" d="M1684.669,354.263l-4.867-7.968a1.386,1.386,0,0,1,2.366-1.445l3.441,5.635,9.149-5.415a1.386,1.386,0,0,1,1.412,2.386Z" transform="translate(-1679.599 -344.186)"/></g><path class="b" d="M1663.96,333.467a17.5,17.5,0,1,1,17.5-17.5A17.522,17.522,0,0,1,1663.96,333.467Zm0-32.5a15,15,0,1,0,15,15A15.019,15.019,0,0,0,1663.96,300.963Z" transform="translate(-1646.458 -298.463)"/></g><g transform="translate(289.468 3.474)"><g transform="translate(14.058 19.396)"><path class="b" d="M1352.129,233.831l-7.466-12.223a2.126,2.126,0,1,1,3.629-2.217l5.279,8.643,14.035-8.307a2.127,2.127,0,0,1,2.166,3.66Z" transform="translate(-1344.351 -218.373)"/></g><path class="b" d="M1320.362,201.93a26.848,26.848,0,1,1,26.848-26.848A26.878,26.878,0,0,1,1320.362,201.93Zm0-49.861a23.012,23.012,0,1,0,23.012,23.012A23.038,23.038,0,0,0,1320.362,152.07Z" transform="translate(-1293.514 -148.234)"/></g><g transform="translate(217.912 44.596)"><g transform="translate(9.289 12.816)"><path class="b" d="M1073.484,353.5l-4.933-8.076a1.405,1.405,0,1,1,2.4-1.465l3.488,5.712,9.274-5.489a1.405,1.405,0,1,1,1.431,2.419Z" transform="translate(-1068.345 -343.285)"/></g><path class="b" d="M1052.494,332.421a17.741,17.741,0,1,1,17.74-17.741A17.761,17.761,0,0,1,1052.494,332.421Zm0-32.947A15.206,15.206,0,1,0,1067.7,314.68,15.223,15.223,0,0,0,1052.494,299.474Z" transform="translate(-1034.753 -296.939)"/></g><g transform="translate(144.974 0)"><g transform="translate(11.629 16.044)"><path class="b" d="M819.484,206.475l-6.175-10.111a1.759,1.759,0,0,1,3-1.834l4.367,7.15,11.609-6.871a1.759,1.759,0,0,1,1.792,3.027Z" transform="translate(-813.05 -193.688)"/></g><path class="b" d="M793.207,180.087a22.208,22.208,0,1,1,22.208-22.208A22.233,22.233,0,0,1,793.207,180.087Zm0-41.244a19.035,19.035,0,1,0,19.036,19.036A19.057,19.057,0,0,0,793.207,138.844Z" transform="translate(-770.999 -135.671)"/></g><g transform="translate(64.347 47.131)"><g transform="translate(12.892 17.787)"><path class="b" d="M533.191,384.6l-6.846-11.209a1.95,1.95,0,1,1,3.328-2.033l4.841,7.927,12.871-7.618a1.95,1.95,0,1,1,1.986,3.357Z" transform="translate(-526.058 -370.425)"/></g><path class="b" d="M504.059,355.346a24.621,24.621,0,1,1,24.621-24.621A24.649,24.649,0,0,1,504.059,355.346Zm0-45.725a21.1,21.1,0,1,0,21.1,21.1A21.128,21.128,0,0,0,504.059,309.621Z" transform="translate(-479.437 -306.104)"/></g><g transform="translate(448.599 14.83)"><g transform="translate(7.331 10.114)"><path class="b" d="M1899.524,233.935l-3.893-6.374a1.109,1.109,0,1,1,1.892-1.156l2.753,4.507,7.318-4.332a1.109,1.109,0,1,1,1.13,1.909Z" transform="translate(-1895.468 -225.874)"/></g><path class="b" d="M1882.959,217.3a14,14,0,1,1,14-14A14.016,14.016,0,0,1,1882.959,217.3Zm0-26a12,12,0,1,0,12,12A12.014,12.014,0,0,0,1882.959,191.3Z" transform="translate(-1868.958 -189.299)"/></g><g transform="translate(264.068 304.176)"><rect class="c" width="38.614" height="117.285" transform="translate(38.614 117.285) rotate(180)"/></g><g transform="translate(116.657 125.452)"><path class="d" d="M61.327,0H272.108a61.326,61.326,0,0,1,61.326,61.326V173.894a61.327,61.327,0,0,1-61.327,61.327H61.326A61.326,61.326,0,0,1,0,173.9V61.327A61.327,61.327,0,0,1,61.327,0Z" transform="translate(333.435 235.221) rotate(180)"/></g><g transform="translate(129.716 100.417)"><rect class="e" width="307.317" height="223.395" transform="translate(307.317 223.395) rotate(180)"/></g><g transform="translate(129.716 100.417)"><rect class="f" width="307.317" height="26.982" transform="translate(307.317 26.982) rotate(180)"/></g><g transform="translate(399.635 329.924)"><path class="g" d="M1691.9,1339.485c0,5.94,5.662,10.756,12.646,10.756s12.647-4.815,12.647-10.756-5.662-10.755-12.647-10.755S1691.9,1333.545,1691.9,1339.485Z" transform="translate(-1691.895 -1328.73)"/></g><rect class="g" width="173.72" height="8.853" transform="translate(196.514 417.034)"/><rect class="h" width="43.832" height="10.196" rx="5.098" transform="translate(142.552 108.81)"/><rect class="i" width="160.899" height="5.531" transform="translate(152.231 221.412)"/><rect class="i" width="119.338" height="5.531" transform="translate(152.231 231.373)"/><rect class="i" width="75.67" height="5.531" transform="translate(152.231 253.018)"/><rect class="i" width="135.946" height="5.531" transform="translate(152.231 262.979)"/><rect class="i" width="127.353" height="5.53" transform="translate(152.231 286.78)"/><rect class="i" width="155.512" height="5.531" transform="translate(152.231 296.741)"/><rect class="j" width="4.043" height="15.492" transform="translate(144.38 221.412)"/><rect class="j" width="4.043" height="15.492" transform="translate(144.38 253.018)"/><rect class="j" width="4.043" height="15.491" transform="translate(144.38 286.78)"/><g transform="translate(349.044 287.086)"><path class="j" d="M11.081,0h0a11.08,11.08,0,0,1,11.08,11.08v0A11.081,11.081,0,0,1,11.081,22.161h0A11.081,11.081,0,0,1,0,11.081v0A11.081,11.081,0,0,1,11.081,0Z"/><g transform="translate(4.398 6.2)"><path class="k" d="M1530.834,1206l-5.6-4.884a1.1,1.1,0,0,1,1.45-1.664l3.962,3.455,5.65-6.3a1.1,1.1,0,0,1,1.643,1.474Z" transform="translate(-1524.853 -1196.24)"/></g></g><g transform="translate(349.034 253.313)"><path class="j" d="M1526.045,1073.875h-12.083a5.056,5.056,0,0,1-5.05-5.051v-12.082a5.056,5.056,0,0,1,5.05-5.051h12.083a5.056,5.056,0,0,1,5.049,5.051v12.082A5.055,5.055,0,0,1,1526.045,1073.875Zm-12.083-20.777a3.648,3.648,0,0,0-3.643,3.645v12.082a3.648,3.648,0,0,0,3.643,3.644h12.083a3.648,3.648,0,0,0,3.643-3.644v-12.082a3.648,3.648,0,0,0-3.643-3.645Z" transform="translate(-1508.912 -1051.692)"/></g><g transform="translate(382.399 287.075)"><path class="j" d="M1646.7,1195.965h-12.082a5.057,5.057,0,0,1-5.051-5.05v-12.082a5.057,5.057,0,0,1,5.051-5.051H1646.7a5.055,5.055,0,0,1,5.049,5.051v12.082A5.054,5.054,0,0,1,1646.7,1195.965Zm-12.082-20.776a3.648,3.648,0,0,0-3.645,3.644v12.082a3.649,3.649,0,0,0,3.645,3.644H1646.7a3.647,3.647,0,0,0,3.643-3.644v-12.082a3.647,3.647,0,0,0-3.643-3.644Z" transform="translate(-1629.568 -1173.783)"/></g><g transform="translate(382.411 253.324)"><path class="j" d="M11.081,0h0A11.081,11.081,0,0,1,22.161,11.081v0A11.081,11.081,0,0,1,11.081,22.161h0A11.081,11.081,0,0,1,0,11.081v0A11.081,11.081,0,0,1,11.081,0Z"/><g transform="translate(4.398 6.199)"><path class="k" d="M1651.494,1083.913l-5.6-4.884a1.1,1.1,0,1,1,1.451-1.664l3.962,3.454,5.65-6.3a1.1,1.1,0,1,1,1.643,1.473Z" transform="translate(-1645.513 -1074.151)"/></g></g><g transform="translate(382.399 219.551)"><path class="j" d="M1646.7,951.787h-12.082a5.057,5.057,0,0,1-5.051-5.051V934.655a5.057,5.057,0,0,1,5.051-5.051H1646.7a5.055,5.055,0,0,1,5.049,5.051v12.082A5.054,5.054,0,0,1,1646.7,951.787Zm-12.082-20.777a3.649,3.649,0,0,0-3.645,3.645v12.082a3.649,3.649,0,0,0,3.645,3.644H1646.7a3.647,3.647,0,0,0,3.643-3.644V934.655a3.648,3.648,0,0,0-3.643-3.645Z" transform="translate(-1629.568 -929.604)"/></g><g transform="translate(349.044 219.562)"><path class="j" d="M11.081,0h0a11.08,11.08,0,0,1,11.08,11.08v0a11.08,11.08,0,0,1-11.08,11.08h0A11.081,11.081,0,0,1,0,11.081v0A11.081,11.081,0,0,1,11.081,0Z"/><g transform="translate(4.398 6.2)"><path class="k" d="M1530.834,961.824l-5.6-4.884a1.1,1.1,0,0,1,1.45-1.664l3.962,3.454,5.65-6.3a1.1,1.1,0,1,1,1.643,1.473Z" transform="translate(-1524.853 -952.062)"/></g></g><g transform="translate(0 249.709)"><path class="l" d="M442.078,1038.916c-5.231-2.5-10.438,14.153-10.438,14.153-8.892,11.75-21.319-3.881-20.1,13.683,2.126,30.736-35.378,9.665-18.076,41.755s-15.278,18.145-4.525,44.019-3.184,56.734,12.995,44.053c0,0,14.246-31.239,28.937-40.9s-8.8-21.134-4.2-34.261c6.676-19.068,22.763-18.319,11.164-38.809S459.863,1047.422,442.078,1038.916Z" transform="translate(-348.003 -1038.66)"/><g transform="translate(48.137 32.585)"><path class="e" d="M421.485,1270.071c7.013-4.932,15.221-39.3,15.71-59.773.251-10.486,3.351-14.855,6.086-18.71,2.614-3.684,4.872-6.866,3.557-14.173-2.513-13.962,4.095-19.99,4.161-20.049l-.765-.872c-.294.257-7.176,6.474-4.538,21.127,1.229,6.826-.8,9.681-3.361,13.3-2.691,3.793-6.04,8.512-6.3,19.353-.526,21.97-8.917,54.421-15.218,58.852Z" transform="translate(-420.818 -1156.494)"/></g><g transform="translate(0 79.863)"><path class="m" d="M280.852,1383.733c-.662-1.5-1.347-3.052-2.122-4.689-4.006-8.457-7.555-9.849-13.434-12.157-1.437-.564-3.065-1.2-4.853-2.006-8.422-3.785-6.791-9.363-5.352-14.284.2-.689.4-1.375.576-2.054.741-2.894-.682-4.346-2.837-6.544a24.572,24.572,0,0,1-5.13-6.878c-1.681-3.514-.824-5.4.191-6.36,2.137-2.025,7.063-1.652,11.714.887h0A16.941,16.941,0,0,1,263.5,1333c2.965,3.105,6.656,6.969,15.989,7.013,5.322.025,8.237.76,9.746,2.456,1.713,1.925,1.391,4.808.943,8.8-.155,1.38-.33,2.943-.436,4.633a27.028,27.028,0,0,0,5.374,17.423c3.555,4.234,7.935,13.017,6.045,18.423a6.47,6.47,0,0,1-5.268,4.238,14.951,14.951,0,0,1-2.965.322C286.4,1396.3,284.01,1390.891,280.852,1383.733Zm-21.8-53.067c-4.154-2.268-8.609-2.725-10.361-1.063-1.332,1.262-.7,3.425.058,5.018a23.251,23.251,0,0,0,4.912,6.566c2.254,2.3,4.034,4.117,3.132,7.644-.177.692-.381,1.391-.586,2.092-1.432,4.9-2.786,9.53,4.715,12.9,1.762.791,3.376,1.425,4.8,1.984,5.935,2.329,9.856,3.868,14.059,12.74.782,1.651,1.47,3.211,2.135,4.718,3.628,8.222,5.818,13.184,13.75,11.583a5.384,5.384,0,0,0,4.4-3.485c1.666-4.765-2.32-13.106-5.839-17.3a27.7,27.7,0,0,1-5.643-18.241c.108-1.718.285-3.3.441-4.689.413-3.69.712-6.357-.657-7.9-1.252-1.407-3.993-2.045-8.886-2.068-9.826-.047-13.705-4.108-16.822-7.372a15.865,15.865,0,0,0-3.611-3.136Z" transform="translate(-246.748 -1327.459)"/></g><g transform="translate(8.996 89.125)"><path class="n" d="M319.3,1427.232l1.158-.061c-.057-1.088-1.518-26.738-11.817-34.245-11.3-8.235-14.861-17.086-16.557-23.026-2-7-12.175-8.871-12.607-8.948l-.2,1.142c.1.018,9.894,1.823,11.693,8.124,1.744,6.105,5.4,15.2,16.99,23.645C317.818,1401.048,319.289,1426.971,319.3,1427.232Z" transform="translate(-279.278 -1360.952)"/></g><path class="l" d="M316.929,1132.421c7.32-2.51,5.8,11.6,8.892,22.037s34.409,4.554,21.264,30.693,16.624,8.742,7.732,31.552-.773,47.206-10.439,41-5.43-34.93-15.482-38.343-11.692-7.394-1.74-16.673-26.079-18.49-17.187-37.226S308.472,1135.321,316.929,1132.421Z" transform="translate(-291.456 -1106.28)"/><g transform="translate(29.154 58.862)"><path class="e" d="M371.457,1342.982c.92-3.905,8.782-38.269,1.447-42.423-6.465-3.661-6.306-17.9-5.3-31.348.893-11.9-14.395-17.466-15.046-17.7l-.388,1.093c.151.054,15.1,5.5,14.277,16.518-1.036,13.809-1.147,28.463,5.882,32.444,5.57,3.155.442,30.772-2,41.148Z" transform="translate(-352.173 -1251.513)"/></g><path class="o" d="M405.993,1538.03l-10.451,39.649H372.187l-10.451-39.649Z" transform="translate(-329.938 -1399.936)"/><path class="p" d="M405.993,1538.029s-23.007,4.319-23.007,39.649h-10.8l-10.451-39.649Z" transform="translate(-329.938 -1399.936)"/></g><g transform="translate(251.551 261.77)"><g transform="translate(0.062 98.77)"><path class="q" d="M1164.1,1440.395a7,7,0,0,1,.905,2.393,11.492,11.492,0,0,0,1.1,2.826,26.894,26.894,0,0,1,1.343,4.71c.015.339-.74,2.472-.633,3.154s.5,2.034-.116,2.124-1.307-1.018-1.307-1.018a.9.9,0,0,1-.461.867,1.517,1.517,0,0,1-1.541.056s-.371.691-.839.784a1.9,1.9,0,0,1-1.533-.207,1.857,1.857,0,0,1-1.164.374,1.528,1.528,0,0,1-1.292-.8s-1.152.233-1.486-.3a5.181,5.181,0,0,1-.415-1.6,18.613,18.613,0,0,1,1.46-8.051,7.133,7.133,0,0,0-.38-6.255Z" transform="translate(-1156.622 -1439.446)"/></g><g transform="translate(0 107.682)"><path class="r" d="M1165.4,1477.485s.1-3.946-.935-4.786-1.157.584-1.157.584.141-1.408-.993-1.6-1.183,1.482-1.183,1.482a1.1,1.1,0,0,0-1.378-.862c-1.192.223-.908,1.608-.908,1.608s-1.139-1.359-1.877-.054a5.815,5.815,0,0,0-.045,4.8s.352.6,1.486.3a1.567,1.567,0,0,0,2.457.429s1.738.957,2.371-.576A1.438,1.438,0,0,0,1165.4,1477.485Z" transform="translate(-1156.4 -1471.67)"/></g><path class="s" d="M1178,1213.2s-6.755,22.514-9.037,30.819c-.716,2.6-2.448,27.478-2.754,28.479s-8.874,2.374-8.874,2.374,1.038-31.116,1.135-32.813,9.454-36.445,12.175-37.685c2.039-.928,3.115-.16,5.684,1.747C1179.939,1208.8,1178,1213.2,1178,1213.2Z" transform="translate(-1157.08 -1170.327)"/><g transform="translate(86.801 1.219)"><rect class="t" width="18.479" height="1.372" transform="translate(0 10.12) rotate(-33.204)"/></g><path class="u" d="M1505.132,1095.382a4.03,4.03,0,0,1-.4,1.225s-.506.6-.84,1.054a3.734,3.734,0,0,0-.242.359,7.361,7.361,0,0,1-1.278,1.985c-.736.748-3.6,3.122-3.6,3.122l-2.457-2.086-2.551-1.144s1.429-6.209,2.034-6.985a2.562,2.562,0,0,1,.185-.211,9.4,9.4,0,0,1,1.6-1.1c.125-.1,1.438-1.049,1.906-.927a1.579,1.579,0,0,1,1.179.984,3.775,3.775,0,0,1,1.747,1.123,2.35,2.35,0,0,1,1.519,1.41S1505.08,1094.65,1505.132,1095.382Z" transform="translate(-1400.468 -1088.344)"/><g transform="translate(7.353 196.045)"><path class="v" d="M1191.081,1791.76s-.616,4.274-.693,4.916-6.85-.378-6.85-.378l-.549-5.088S1190.234,1791.157,1191.081,1791.76Z" transform="translate(-1182.989 -1791.209)"/></g><g transform="translate(6.294 200.68)"><path class="w" d="M1187.69,1808.258a18.3,18.3,0,0,0,4.221,3.7c2.076,1.123,5.337,1.567,6.565,2.729.886.839,3.227,4.45-5.394,4.377s-12.776.51-13.7-.875,1.336-10.219,1.336-10.219S1182.761,1808.7,1187.69,1808.258Z" transform="translate(-1179.161 -1807.968)"/></g><g transform="translate(55.882 196.045)"><path class="v" d="M1366.568,1791.76s-.615,4.274-.692,4.916-6.85-.378-6.85-.378l-.548-5.088S1365.721,1791.157,1366.568,1791.76Z" transform="translate(-1358.477 -1791.209)"/></g><g transform="translate(54.823 200.68)"><path class="w" d="M1363.177,1808.258a18.3,18.3,0,0,0,4.222,3.7c2.075,1.123,9.713,2.045,10.94,3.206.886.839,2.359,4.216-9.77,3.9-8.617-.225-12.776.51-13.7-.875s1.336-10.219,1.336-10.219S1358.129,1808.753,1363.177,1808.258Z" transform="translate(-1354.648 -1807.968)"/></g><g transform="translate(6.294 86.774)"><path class="w" d="M1193.919,1396.065s-6.364,10.111-5.889,19.251-2.307,19.117-3.263,28.666c-1.066,10.644-5.427,35.842-5.586,41.535s.677,23.874.677,23.874l8.731.2s7.333-44.053,9.232-48.548,11.317-36.54,11.633-40.136S1193.919,1396.065,1193.919,1396.065Z" transform="translate(-1179.161 -1396.065)"/></g><g transform="translate(17.85 85.032)"><path class="w" d="M1257.651,1392.879s4.8,25.05,5.429,30.644,1.055,27.071,1.372,30.567,2.956,45.646,3.8,50.945h-11.161s-8.568-30.717-8.568-45.251-6.62-31.6-10.892-41.185-14.053-9.816-16.68-27.607C1220.947,1390.991,1254.095,1387.235,1257.651,1392.879Z" transform="translate(-1220.947 -1389.767)"/></g><g transform="translate(26.326 0.984)"><path class="q" d="M1256.944,1086.617s8.542-3.191,12.48,3.312,3.559,19.52-.746,21.12-10.774.764-12.978-3.305-4.195-9.951-4.1-13.881S1254.7,1087.752,1256.944,1086.617Z" transform="translate(-1251.598 -1085.835)"/></g><g transform="translate(28.759 18.389)"><path class="q" d="M1274.117,1156.882a7.391,7.391,0,0,0,.232,3.443c.587,1.136-11.066,1.165-11.066,1.165a76.8,76.8,0,0,0-2.74-11.4C1258.75,1144.868,1274.117,1156.882,1274.117,1156.882Z" transform="translate(-1260.398 -1148.774)"/></g><g transform="translate(25.615)"><path class="x" d="M1252.318,1101.98s.8,1.327,4.087.812,7.289-4.883,8.66-5.363,1.384-1.285,1.384-1.285l.858,1.254,1.456.092s-1.329-3.907.675-5.5-2.079-12.647-12.609-8.967c0,0-8.087,2.229-7.793,6.829S1250.509,1099.689,1252.318,1101.98Z" transform="translate(-1249.029 -1082.276)"/></g><g transform="translate(30.314 26.609)"><path class="y" d="M1279.109,1181.692s-.037-2.171-1.021-2.379-10.86-1.158-12.068-.683v2.528S1268.347,1182.591,1279.109,1181.692Z" transform="translate(-1266.02 -1178.499)"/></g><g transform="translate(39.749 10.519)"><path class="q" d="M1303.208,1121.991c-.184-.771-2.146-2.976-2.9-.615s1.135,5.536,2.187,5.264S1303.675,1123.947,1303.208,1121.991Z" transform="translate(-1300.139 -1120.315)"/></g><g transform="translate(11.888 10.47)"><path class="s" d="M1247.238,1142.756c-6.772-.892-16.336-3.287-16.336-3.287l-13.089-.533s-12.013,2.645-16.744,4.781c-.448.2-.45,10.717-1.682,13.474l3.922,8.275s2.266,16.391,2.736,23.681c.216,3.347-4.673,31.381-4.673,31.381a90.332,90.332,0,0,0,14.172,2.527c8.933.984,31.252-.356,31.393-1.411s-4.322-39.288-4.52-41.267c-.3-3.039,1.047-19.187,1.047-19.187,2.062-1.6,20.172-10.006,25.112-14.387,1.322-1.173,6.9-6.607,8.489-8.483,5.618-6.642,10.223-12.341,10.783-13.569.637-.7-6.248-4.41-6.859-4.614-.535-.178-7.984,9.707-10.907,12.873a81.964,81.964,0,0,1-6.72,5.352S1251.474,1143,1247.238,1142.756Z" transform="translate(-1199.388 -1120.137)"/></g><g transform="translate(24.298 2.534)"><path class="x" d="M1249.207,1091.439s-10.892.853-.334,17.17Z" transform="translate(-1244.265 -1091.439)"/></g><path class="z" d="M1526.951,1087.269l.894-1.363-1.645.215Z" transform="translate(-1423.937 -1084.902)"/></g><g transform="translate(90.2 268.991)"><path class="aa" d="M737.241,1366.29s5.3.319,6.783,1.145,11.5-2.331,11.688-3.059a1.647,1.647,0,0,0,0-1.088H736.046Z" transform="translate(-690.938 -1292.799)"/><g transform="translate(10.353 49.152)"><path class="aa" d="M622.529,1287.1s-1.691,13.283,0,15.023c6.457,6.65,30.388,6.122,30.388,6.122l-.009,2.7s-36.377,4.537-39.756-2.518c-4.061-8.478-2.485-22.3-2.485-22.3Z" transform="translate(-610.365 -1286.131)"/></g><g transform="translate(5.476 183.553)"><path class="ab" d="M597.764,1778.69l2.161-2.463-3.9-4.081-3.295,2.307Z" transform="translate(-592.73 -1772.146)"/></g><g transform="translate(0.234 185.86)"><path class="ac" d="M579.015,1780.489s4.452,3.354,5.691,3.489,1.823.687,1.675,2.574,1.81,9.833,3.173,9.961,6,.152,6.847,3.212-14.726,2.417-15.69-.093-7.667-14.673-6.873-15.652S576.73,1780.8,579.015,1780.489Z" transform="translate(-573.773 -1780.489)"/></g><g transform="translate(7.836 88.15)"><path class="ad" d="M627.473,1429.8s29.087,50.67,17.28,61.153c-4.63,4.111-9.087,7.829-15.494,13.331a157.984,157.984,0,0,0-12.392,11.386l-.2.212c-3.476,3.624-6.346,6.687-7.23,7.634-.032.031-.06.06-.083.088l-.1.105-3.237,3.089-4.75-4.175a140.739,140.739,0,0,0,8.42-13.173c4.261-8.031,11.421-17.471,14.734-20.105,5.675-4.511,7.234-5.4,7.234-9.711,0-4.626-26.66-30.472-26.66-30.472s-3.868-16.176,5.371-20.408C619.366,1424.624,627.473,1429.8,627.473,1429.8Z" transform="translate(-601.264 -1427.153)"/></g><path class="ae" d="M598.971,1811.877a14.408,14.408,0,0,1,.21-3.825c.394-1.492-6.021-.635-6.021-.635s-.826,6.232-.587,7.659S598.971,1811.877,598.971,1811.877Z" transform="translate(-587.108 -1613.933)"/><g transform="translate(3.884 88.902)"><path class="ab" d="M596.15,1535.1l-8.652,1.559s-.624-11.039-.511-19.5c.121-9.09-.336-16.239,2.44-23.474,2.6-6.768,2.006-9.348,2.233-13.967s-2.218-28.415-2.218-28.415-2.955-10.653,3.886-18.168c6.665-7.324,23.909-.031,23.909-.031s-3.592,32.505-12.216,52.611c-2.441,5.69-1.121,9.148-4.235,17.94C600.786,1503.656,596.057,1522.83,596.15,1535.1Z" transform="translate(-586.973 -1429.873)"/></g><g transform="translate(9.061 21.343)"><path class="af" d="M617.226,1192.091a9.983,9.983,0,0,0-1.025,2.782,23.694,23.694,0,0,0-.475,2.969,34.67,34.67,0,0,0-.174,3.779s-11.541-2.513-9.647-5.2.779-10.849.779-10.849S618.72,1189.574,617.226,1192.091Z" transform="translate(-605.695 -1185.568)"/></g><g transform="translate(6.856 3.591)"><path class="q" d="M617.948,1123.419s2.954,2.566,1.633,9.957c0,0,.653,5.887,1.554,6.914s-2.42,1.406-2.769,2.146-1.01,4.2-3.326,6.286-13.778-4.2-14.336-7.754-8.5-18.778,4.071-19.475S617.948,1123.419,617.948,1123.419Z" transform="translate(-597.719 -1121.374)"/></g><g transform="translate(6.035 32.685)"><path class="ag" d="M623.71,1254.071c-.234.741.646,12.114.566,13.1-.44,5.378.949,13.553,1.5,16.48.13.692.2,1.046.2,1.046-12.461,6.095-29.794,5.561-29.794,5.561.062-.471,2.481-6.327,2.543-6.775,1.026-7.316,2.541-10.656,2.129-15.6h0a30.933,30.933,0,0,0-2.4-9.287c-4.232-10.4-4-17.32-3.312-23.032a28.132,28.132,0,0,1,2.4-8.97l10.528,1.13c2.235,2.475,4.223,3.8,10.574,9.433C625.4,1243.147,626.584,1244.968,623.71,1254.071Z" transform="translate(-594.751 -1226.584)"/></g><g transform="translate(4.409 197.284)"><path class="ad" d="M589.538,1824.04s6.089-1.731,6.27-1.9.222-.538,1.062-.2,1.188,1.609,2.012,2.012,5.85,1.872,8.6,3.227c.995.49,5.2,2.094,5.812,3.436s.418,3.355-6.815,2.878-15.147.543-16.731-.248S589.124,1826.133,589.538,1824.04Z" transform="translate(-588.871 -1821.8)"/></g><g transform="translate(6.598)"><path class="ah" d="M619.223,1121.324s1.414-15.348-13.467-12.607-7.21,19.514-5.206,24.982c0,0-.243-8.491,6.922-8.768S616.117,1123,619.223,1121.324Z" transform="translate(-596.788 -1108.389)"/></g><g transform="translate(12.473 13.592)"><path class="af" d="M621.675,1158.335c-.9-1.559-3.968-.728-3.617,1.646s2.813,4.743,3.629,3.595A4.6,4.6,0,0,0,621.675,1158.335Z" transform="translate(-618.03 -1157.54)"/></g><g transform="translate(6.035 43.248)"><path class="af" d="M605.172,1266.073s-1.226,13.148.464,14.889c6.457,6.65,31.935,6.776,31.935,6.776l1.217,3.823s-37.87,2.578-41.25-4.477c-4.061-8.479-2.485-22.3-2.485-22.3Z" transform="translate(-594.751 -1264.781)"/></g><path class="ah" d="M583.776,1117.371s-5.731-5.5-9.805.73,4.84,14.915,8.454,9.758A11.489,11.489,0,0,0,583.776,1117.371Z" transform="translate(-572.927 -1113.266)"/><path class="ai" d="M624.911,1208.442a23.677,23.677,0,0,0-.474,2.968c-3.834-1.748-6.7-7.086-6.7-7.086a29.515,29.515,0,0,0,7.175,4.117Z" transform="translate(-605.344 -1177.795)"/><rect class="aj" width="36.119" height="2.017" transform="translate(38.228 70.029)"/><rect class="aj" width="36.119" height="2.016" transform="translate(72.546 71.137) rotate(-63.225)"/><path class="af" d="M727.233,1343.531s5.3-.407,6.783-1.458,11.5,2.969,11.688,3.9a2.634,2.634,0,0,1,0,1.385H726.038Z" transform="translate(-683.697 -1277.325)"/><path class="ag" d="M604.848,1221.316l.741-2.013,10.112,2.013v1.79Z" transform="translate(-596.02 -1188.631)"/><g transform="translate(6.333 36.381)"><path class="af" d="M605.935,1248.281s1.085-7.622-4.221-8.291-5.887,6.854-5.887,6.854Z" transform="translate(-595.827 -1239.948)"/></g></g><g transform="translate(371.613 259.741)"><g transform="translate(80.673 197.078)"><path class="ak" d="M1882.288,1788.161s.615,4.314.693,4.962,6.848-.382,6.848-.382l.549-5.136S1883.135,1787.552,1882.288,1788.161Z" transform="translate(-1882.288 -1787.604)"/></g><g transform="translate(69.542 201.756)"><path class="al" d="M1853.788,1804.813a18.343,18.343,0,0,1-4.22,3.733c-2.075,1.133-5.336,1.582-6.564,2.755-.885.846-3.226,4.492,5.393,4.418s12.774.515,13.7-.883-1.336-10.315-1.336-10.315S1858.717,1805.263,1853.788,1804.813Z" transform="translate(-1842.037 -1804.521)"/></g><g transform="translate(32.152 197.078)"><path class="ak" d="M1706.83,1788.161s.616,4.314.693,4.962,6.849-.382,6.849-.382l.548-5.136S1707.677,1787.552,1706.83,1788.161Z" transform="translate(-1706.83 -1787.604)"/></g><g transform="translate(17.041 201.756)"><path class="al" d="M1667.916,1804.813a18.344,18.344,0,0,1-4.221,3.733c-2.075,1.133-9.712,2.063-10.939,3.237-.886.846-2.359,4.255,9.768,3.936,8.616-.226,12.774.515,13.7-.883s-1.336-10.315-1.336-10.315S1672.962,1805.313,1667.916,1804.813Z" transform="translate(-1652.183 -1804.521)"/></g><g transform="translate(59.529 86.255)"><path class="am" d="M1824.567,1386.85s3.6,10.706,3.129,19.931,1.864,19.321,2.82,28.959c1.065,10.744,5.426,36.18,5.584,41.927s-.677,24.1-.677,24.1l-8.729.2s-7.332-44.467-9.231-49-11.315-36.884-11.632-40.514S1824.567,1386.85,1824.567,1386.85Z" transform="translate(-1805.829 -1386.85)"/></g><g transform="translate(30.973 85.019)"><path class="al" d="M1713.161,1385.521s-4.8,25.286-5.428,30.933-1.055,27.326-1.371,30.855-2.11,46.182-3.8,51.425h11.16s8.566-31.007,8.566-45.677,6.618-31.893,10.891-41.573,14.051-9.909,16.677-27.868C1749.859,1383.616,1716.717,1379.826,1713.161,1385.521Z" transform="translate(-1702.564 -1382.38)"/></g><g transform="translate(48.583 0.936)"><path class="q" d="M1781.912,1079.13s-8.8-3.286-12.853,3.411-3.665,20.1.769,21.751,11.1.786,13.365-3.4,4.32-10.248,4.221-14.3S1784.222,1080.3,1781.912,1079.13Z" transform="translate(-1766.244 -1078.324)"/></g><g transform="translate(53.389 18.386)"><path class="q" d="M1783.879,1149.533a7.386,7.386,0,0,1-.232,3.442c-.587,1.136,11.065,1.165,11.065,1.165a76.794,76.794,0,0,1,2.739-11.4C1799.245,1137.522,1783.879,1149.533,1783.879,1149.533Z" transform="translate(-1783.625 -1141.427)"/></g><g transform="translate(49.603)"><path class="an" d="M1787.547,1094.64s-.8,1.327-4.087.812-7.288-4.882-8.659-5.362-1.384-1.285-1.384-1.285l-.858,1.254-1.456.092s1.328-3.907-.676-5.5,2.079-12.646,12.607-8.967c0,0,8.086,2.229,7.792,6.828S1789.357,1092.349,1787.547,1094.64Z" transform="translate(-1769.936 -1074.939)"/></g><g transform="translate(52.719 26.605)"><path class="y" d="M1781.2,1174.339s.037-2.17,1.021-2.379,10.858-1.157,12.066-.683v2.529S1791.962,1175.238,1781.2,1174.339Z" transform="translate(-1781.202 -1171.146)"/></g><g transform="translate(53.045 10.517)"><path class="q" d="M1782.638,1114.648c.184-.771,2.145-2.976,2.9-.615s-1.135,5.534-2.187,5.262S1782.171,1116.6,1782.638,1114.648Z" transform="translate(-1782.38 -1112.972)"/></g><g transform="translate(16.091 29.265)"><path class="ag" d="M1685.378,1181.3s-5.413,1.946-11.683,4.611c0,0-7.213,2.694-7.994,10.659-.415,4.228-4.917,26.668-5.76,28.567s-10.827,32.4-11.179,33.035,8.148,4.161,8.71,3.879,9.666-27.821,10.581-29.86c0,0,5.24-16.513,5.381-18.975,0,0,.151,7.017.432,8.986s-4.66,40.205-4.519,41.26,22.457,2.4,31.389,1.411a109.315,109.315,0,0,0,16.138-3.04s-7.028-30.176-6.812-33.522c.47-7.289,2.906-21.019,2.906-21.019l7.282,13.73L1710.927,1245l2.135,7.289s17.322-26.176,17.885-28.568-.848-5.437-1.763-7.406-6.919-16.956-8.326-19.066-3.783-10.559-9.528-12.911a89.808,89.808,0,0,0-12.865-3.576Z" transform="translate(-1648.751 -1180.764)"/></g><g transform="translate(0 81.56)"><rect class="ao" width="42.128" height="29.39" transform="matrix(0.969, 0.248, -0.248, 0.969, 7.3, 0)"/></g><g transform="translate(10.881 112.895)"><path class="ap" d="M1631.575,1483.184s-1.166,1.885-1.592,2.422,1.047.875,1.678.331S1631.575,1483.184,1631.575,1483.184Z" transform="translate(-1629.907 -1483.184)"/></g><g transform="translate(12.456 106.035)"><path class="aq" d="M1644.194,1471.676a4.523,4.523,0,0,0,.837-1.18s.205-.859.388-1.462a4.273,4.273,0,0,1,.161-.459,8.3,8.3,0,0,0,.933-2.479c.18-1.163.689-6.384.689-6.384l-3.161-.8-2.539-.536s-5.486,5.472-5.78,6.537a2.876,2.876,0,0,0-.067.307,10.554,10.554,0,0,0,.079,2.177c-.01.182.017,2,.44,2.337a1.775,1.775,0,0,0,1.676.4,4.236,4.236,0,0,0,2.181.821,2.635,2.635,0,0,0,2.287.425S1643.5,1472.119,1644.194,1471.676Z" transform="translate(-1635.603 -1458.38)"/></g><g transform="translate(16.102 82.996)"><path class="ag" d="M1666.073,1378.382s-7.243,21.935-8.574,24.237c0,0-5.311-1.117-8.71-3.879l7.952-23.673Z" transform="translate(-1648.789 -1375.067)"/></g></g><g transform="translate(477.779 265.993)"><g transform="translate(79.593 100.191)"><path class="ar" d="M2264.715,1465.91s-.294-5.052-1.632-5.836-.564.779-.564.779.751,3.666.917,5.151A7.6,7.6,0,0,0,2264.715,1465.91Z" transform="translate(-2262.296 -1459.854)"/></g><path class="as" d="M2142.266,1097.565s12.561-1.044,12.217,12.168-2.438,15.2.007,24.536-12.245-5.3-12.245-5.3Z" transform="translate(-2095.85 -1097.546)"/><path class="af" d="M2021.46,1211.506s-17.792,11.1-19.3,9.92c-2.1-1.65-7.821-15.735-7.821-15.735l-4.478,2.131s5.341,24.352,12.535,22.559,23.712-12.008,23.712-12.008Z" transform="translate(-1985.609 -1175.785)"/><path class="af" d="M2123.861,1387.561s4.625,5.9,6.257,9.795,4.353,12.447,3.991,19.067-2.54,19.044-1.905,21.856,1.27,8.615,1.949,10.611,3.4,7.8,3.673,13.785-3.809,32.285-3.627,34.734-4.625,1-4.625,1-1.633-23.761-2.54-27.841-1.995-17.957-2.811-18.954-3.048-11.336-2.7-12.969-8.906-26.119-9.45-31.015-14.184-20.065-14.184-20.065A42.4,42.4,0,0,1,2123.861,1387.561Z" transform="translate(-2063.76 -1305.896)"/><path class="af" d="M2079.525,1383.567a27.864,27.864,0,0,1-.508,3.378c-.272.906-6.53,24.032-7.165,32.92a175.162,175.162,0,0,1-2.538,18.325,39.352,39.352,0,0,0,.816,9.88c.544,1.632-2.721,40.175-2.993,41.082s2.177,1.179,3.9.907,10.429-28.295,9.885-33.011-1.088-14.771.454-18.858,15.417-33.651,15.508-35.466S2102.886,1369.669,2079.525,1383.567Z" transform="translate(-2041.497 -1301.902)"/><path class="af" d="M2201.286,1780.287a19.432,19.432,0,0,1-.934,3.985c-.488.854-1.83,5.205-2.44,6.018s-1.951,6.913,0,7.645,6.547,1.952,8.092-.488a10.039,10.039,0,0,0,1.5-6.75c-.244-1.87-2.1-10.454-2.074-11.3S2201.286,1780.287,2201.286,1780.287Z" transform="translate(-2135.386 -1590.669)"/><path class="ag" d="M2197.142,1813.3s-.21,4.739,3.368,4.739,5.163-4.312,5.163-4.312,1.219,2.117,0,6.63-6.3,3.578-7.44,3.415S2191.7,1822.18,2197.142,1813.3Z" transform="translate(-2133.837 -1615.367)"/><path class="ag" d="M2027.079,1767.846s-2.53,4.524-4.031,5.441c-1.872,1.142-5.5,4.807-6.774,4.976s-5.83.979-4.949,3.553c.722,2.111,11.6,1.808,12.829.75s4.9-4.854,6.377-4.769.931,5.475.931,5.475h1.607s.562-5.245.629-6.147c.2-2.669-1.7-4.632-1.787-6.155s-.172-2.659-.172-2.659Z" transform="translate(-2001.054 -1582.484)"/><path class="af" d="M2030.832,1777.415s3.586,1.24,6.346-.347,8.058-4,9.93-4.012c0,0-1.021-3.125-1.042-3.474s-.134-1.995-.134-1.995l-4.631-.742s-3,4.41-4.327,5.448A75.217,75.217,0,0,0,2030.832,1777.415Z" transform="translate(-2015.248 -1581.76)"/><path class="ag" d="M2081.771,1389.785s-1.292,5.373-1.768,6.938-3.533,25.834-4.285,41.014c0,0,18.3,6.938,43.463,5.781,0,0,.612-27.887-1.7-35.777s-6.5-15.272-9.658-17.549C2105.011,1388.168,2081.771,1389.785,2081.771,1389.785Z" transform="translate(-2047.721 -1308.528)"/><g transform="translate(73.652 91.46)"><path class="af" d="M2242.981,1431.694a37.037,37.037,0,0,1-1.06,4.449c-.686,2.183-1.318,2.879-1.043,4.13.208.944,1.276,1.653,1.546,1.35s.4-3.974,1.921-3.957-.454,4.547.451,4.214,4.392-2.243,4.172-4.093-1.613-3.188-1.524-5.952a5.946,5.946,0,0,0-.7-3.556Z" transform="translate(-2240.813 -1428.279)"/></g><g transform="translate(3.048 28.375)"><path class="q" d="M1985.5,1202.733s2.123,2.759,3.432,3.051,2.733-2.826,2.733-2.826l-.773-2.8Z" transform="translate(-1985.499 -1200.153)"/></g><g transform="translate(0 19.599)"><path class="q" d="M1982.767,1178.852s1.017-3.183,1.157-3.674a6.045,6.045,0,0,0-1.26-3.3,29.361,29.361,0,0,0-2.366-3.185c-.2-.2-.312-.424-.975-.126a2.756,2.756,0,0,0-1.058.916,1.679,1.679,0,0,0-1.42.782,1.462,1.462,0,0,0-1.272,1.013s-.909.052-1.1.789a11.094,11.094,0,0,1,.456,1.909,23.339,23.339,0,0,0,2.593,5.8S1979.708,1181.655,1982.767,1178.852Z" transform="translate(-1974.476 -1168.419)"/></g><g transform="translate(1.411 25.411)"><path class="at" d="M1984.127,1189.924a8.226,8.226,0,0,0-1.221,1.784c-.127.513-3.325-1.393-3.325-1.393S1982.546,1188.634,1984.127,1189.924Z" transform="translate(-1979.58 -1189.437)"/></g><g transform="translate(0 19.79)"><path class="r" d="M1980.465,1169.513s1.769,3.75,1.176,4.073a1.059,1.059,0,0,1-1.007.083l-.093,1.88a1.081,1.081,0,0,1-1.858.024s-.6,1.2-1.517-.068c0,0-.748.619-1.278.105a13.866,13.866,0,0,1-1.411-3.045s.054-.619,1.1-.789a1.437,1.437,0,0,1,1.272-1.013,2.174,2.174,0,0,1,1.651-1.031,1.634,1.634,0,0,1,1.8-.541A2.029,2.029,0,0,1,1980.465,1169.513Z" transform="translate(-1974.476 -1169.111)"/></g><g transform="translate(4.538 23.74)"><path class="q" d="M1995.76,1185.885a14.137,14.137,0,0,0-3.77-2.4c-.368-.116-.745-.162-.992.135s-.129,1.032.759,1.9a10.452,10.452,0,0,1,1.641,2.388S1994.57,1188.525,1995.76,1185.885Z" transform="translate(-1990.885 -1183.395)"/></g><g transform="translate(4.019 19.603)"><path class="q" d="M1989.009,1169.241a34.9,34.9,0,0,1,2.166,4.354c-.025.457,1.434-.322,1.428-.714a32.9,32.9,0,0,0-1.792-4.181A1.123,1.123,0,0,0,1989.009,1169.241Z" transform="translate(-1989.009 -1168.433)"/></g><g transform="translate(1.897 14.339)"><path class="q" d="M1985.71,1155.68s-3.491-6.512-4-6.275c-.747.345-.547,2.148,2.4,7.009C1986.966,1161.141,1985.71,1155.68,1985.71,1155.68Z" transform="translate(-1981.337 -1149.399)"/></g><path class="s" d="M2081.871,1235.611l-7.184-9.532s12.843-9.948,16.806-3.622C2091.493,1222.457,2091.775,1232.878,2081.871,1235.611Z" transform="translate(-2046.975 -1186.392)"/><path class="s" d="M2085.037,1231.067c.2,3.2,1.837,5.849,2.109,7.006s0,3.809.341,6.461,1.359,15.3,1.02,18.909,24.743,1.976,26.647.888c0,0-4.226-7.554-4.338-10.682-.04-1.075-.68-4.421,1.088-6.87.933-1.293,2.664-5.406,4.393-8.414h0c.671-1.167,1.373-2.331,1.863-3.2h0a12.111,12.111,0,0,0,.994-2.469s1.115-13.876-1.945-15.441a15.591,15.591,0,0,0-7.686-1.972,21.74,21.74,0,0,1-4.966-.748l-7.005.748a40.526,40.526,0,0,1-6.258,1.7c-1.768.136-4.013,3.945-3.808,6.393S2084.833,1227.87,2085.037,1231.067Z" transform="translate(-2054.455 -1182.186)"/><g transform="translate(75.124 100.671)"><path class="ar" d="M2248.048,1461.611s-2.026.517-1.906,7.37l2.294-.383a23.61,23.61,0,0,1,.643-5.851S2248.962,1461.406,2248.048,1461.611Z" transform="translate(-2246.137 -1461.589)"/></g><g transform="translate(68.623 104.541)"><path class="ar" d="M2222.63,1480.653l17.865-5.068-.053,22-17.779,10.654Z" transform="translate(-2222.63 -1475.584)"/></g><g transform="translate(68.657 104.541)"><path class="ar" d="M2222.75,1508.241l2.239.413,17.292-10.754-.214-22.215-1.484-.1Z" transform="translate(-2222.75 -1475.584)"/></g><path class="q" d="M2185.364,1219.775s5.563-.02,8.08,4.878,2.789,10.066,3.4,11.9,2.212,12.641,2.825,14.205,4.249,12.185,5.133,18.171a119.551,119.551,0,0,1,1.07,12.057l-4.463-.141s-4.43-16.285-5.957-20.161c-1.3-3.314-1.805-9.1-2.553-11.141s-5.373-16.393-6.325-17.413S2180.617,1220.68,2185.364,1219.775Z" transform="translate(-2125.588 -1185.975)"/><path class="s" d="M2184.511,1239.6l11.337-3.571s-3.476-16.723-13.159-16.276C2174.918,1220.111,2184.511,1239.6,2184.511,1239.6Z" transform="translate(-2122.913 -1185.951)"/><path class="q" d="M2111.689,1102.139a10.675,10.675,0,0,0-12.256,8.445,25.964,25.964,0,0,0,.336,4.085c.342,1.819-1.825,6.82-1.443,7.123a11.436,11.436,0,0,0,2.042.823s1.179,5.87,3.172,6.048,9.693-.514,14.041-7.151S2124.26,1104.2,2111.689,1102.139Z" transform="translate(-2064.045 -1100.781)"/><path class="q" d="M2127.62,1176.3s.154.821.3,2.031c.073.618.143,1.336.189,2.1a14.048,14.048,0,0,1-.659,6.091s3.9,2.417,8.083-3.395c0,0-.408-7.253,1.994-11.089S2127.62,1176.3,2127.62,1176.3Z" transform="translate(-2085.145 -1150.688)"/><path class="as" d="M2102.449,1107.365s4.685,4.046,9.649,5.322,7.59,6.851,7.59,6.851,8.781-8.759,3.483-17.259S2102.457,1097.569,2102.449,1107.365Z" transform="translate(-2067.06 -1097.562)"/><path class="ai" d="M2129.147,1189.8c.073.618.144,1.337.189,2.1a21.918,21.918,0,0,0,6.79-5.035A24.914,24.914,0,0,1,2129.147,1189.8Z" transform="translate(-2086.375 -1162.165)"/><path class="as" d="M2140.644,1150.476s5.076,13.651,4.468,16.936c0,0,2.687-.462,7.471,1C2152.583,1168.413,2150.27,1144.059,2140.644,1150.476Z" transform="translate(-2094.692 -1135.06)"/><path class="q" d="M2133.992,1214.354s-1.673,10.238-7.862,9.082-1.5-8.659-1.5-8.659S2127.052,1212.607,2133.992,1214.354Z" transform="translate(-2081.877 -1181.56)"/></g><g transform="translate(343.81 138.854)"><path class="au" d="M1555.325,670.441a32.652,32.652,0,1,1-32.651-32.652A32.522,32.522,0,0,1,1555.325,670.441Z" transform="translate(-1490.022 -637.789)"/><path class="j" d="M1563.854,725.423a4.037,4.037,0,0,0-.548-.322.3.3,0,0,0-.03-.02l0,0c-1.432-.792-5.634-2.879-13.92-5.257h-.007c-1.5-.459-2.638-.757-3.029-.856l-.7-1.118a34.594,34.594,0,0,1-.056-3.93,13.928,13.928,0,0,0,2.811-6.771c.188.142.336-.168.336-.168-.1-.186,1.575-4.288,1.273-5.214-.172-.525-.521-.458-.793-.306.041-.239.082-.488.125-.752,0,0,.666-6.29-2.518-9.794a3.519,3.519,0,0,0-1.5-.394c-5.113-1.565-8.18-.867-10.1-.044-2.847,2.332-3.063,6.3-2.933,8.488.057.517.116,1.038.174,1.545,0,.011,0,.016,0,.016.024.2.048.4.072.6-.266-.165-.614-.248-.808.271-.341.912.9,5.009,1.058,5.261,0,0,.268.42.477.23,0,0,0-.008,0-.009.587,3.6,1.645,5.822,2.757,7.187-.081,1.461-.292,3.179-.44,4.275l-1.265,1.32h0c-.066.022-.133.044-.2.068v-.008c-14.292,3.814-18.332,6.469-18.332,6.469a3.775,3.775,0,0,0-1.1,1.693,32.654,32.654,0,0,0,50.838,1.042A13.437,13.437,0,0,0,1563.854,725.423Z" transform="translate(-1507.849 -675.265)"/></g><g transform="translate(146.494 138.976)"><g transform="translate(0 6.799)"><rect class="av" width="0.585" height="55.177"/></g><g transform="translate(41.575 6.799)"><rect class="av" width="0.585" height="55.177"/></g><g transform="translate(83.151 6.799)"><rect class="av" width="0.585" height="55.177"/></g><g transform="translate(124.726 6.799)"><rect class="av" width="0.585" height="55.177"/></g><g transform="translate(166.302 6.799)"><rect class="av" width="0.585" height="55.177"/></g><rect class="aw" width="6.615" height="1.918" transform="translate(0.292 65.244)"/><rect class="ax" width="9.958" height="1.438" transform="translate(0.292)"/><rect class="ax" width="14.125" height="1.438" transform="translate(0.292 2.659)"/><rect class="ax" width="11.691" height="1.438" transform="translate(41.42)"/><rect class="ax" width="7.476" height="1.438" transform="translate(41.42 2.659)"/><rect class="ax" width="7.245" height="1.438" transform="translate(83.736)"/><rect class="ax" width="8.444" height="1.438" transform="translate(83.736 2.659)"/><rect class="ax" width="10.553" height="1.438" transform="translate(125.311)"/><rect class="ax" width="8.444" height="1.438" transform="translate(125.311 2.659)"/><rect class="ax" width="6.303" height="1.438" transform="translate(166.594)"/><rect class="ax" width="5.044" height="1.438" transform="translate(166.594 2.659)"/><rect class="aw" width="6.614" height="1.918" transform="translate(41.868 65.244)"/><rect class="aw" width="6.615" height="1.918" transform="translate(83.736 65.244)"/><rect class="aw" width="6.615" height="1.918" transform="translate(125.311 65.244)"/><rect class="aw" width="6.615" height="1.918" transform="translate(166.887 65.244)"/><g transform="translate(0.292 21.104)"><path class="ay" d="M929.446,739.026c-12.967,0-24.24-5.042-35.992-10.3-14.508-6.489-29.51-13.2-49.5-11.361-12.764,1.173-20.775,5.848-27.843,9.973-6.4,3.735-12.451,7.019-20.646,7.3-13.244.453-17.838-4.627-17.915-4.937v-3.26h0c.017.056,2.908,5.758,17.9,5.691,7.384-.033,12.833-3.213,19.143-6.9,7.333-4.279,15.644-9.129,29.077-10.364,20.789-1.911,36.159,4.963,51.022,11.611,15.553,6.956,30.393,13.479,49.159,7.819v2.68A46.736,46.736,0,0,1,929.446,739.026Z" transform="translate(-777.552 -714.549)"/></g><g transform="translate(0.292 13.634)"><path class="f" d="M851.608,718.858c-9.572,0-17.164-5.79-24.6-11.458-5.636-4.3-11.482-8.691-18.231-10.858-20.6-6.614-31.135,5.463-31.229,5.57v-3.674c.111-.125,1.991-2.321,7.429-4.417,4.951-1.908,13.258-3.43,24.716.154,7.259,2.271,13.288,6.868,19.118,11.314,11.827,9.018,22.041,16.807,39.779,4.607,13.435-9.24,26.1-18.046,38.56-21.262,12.188-3.146,24.895-.843,36.788,9.854l-.088,3.337c-25.265-22.824-46.778-8.364-73.568,10.062C863.189,716.968,857.075,718.858,851.608,718.858Z" transform="translate(-777.552 -687.535)"/></g></g></g></g></svg>