<svg xmlns="http://www.w3.org/2000/svg" xmlns:xlink="http://www.w3.org/1999/xlink" width="117.2" height="117.2" viewBox="0 0 117.2 117.2"><defs><style>.a{fill:url(#a);}.b{clip-path:url(#b);}.c{fill:#818181;opacity:0.7;}.d{fill:#292929;}.e{fill:#f3f3f3;}.f{fill:#2e2e2e;}.g{fill:#266473;}.h{fill:#242424;}.i{fill:#faba9c;}.j{fill:#fff;}.k{fill:#fcc9b1;}.l{fill:#4ebfd9;}.m{fill:#43a2b8;}.n{fill:#96d8e9;}.o{fill:#f9ae8a;}.p{fill:#c6d4dc;}.q{fill:#232126;}.r{fill:#f0c54e;}.s{fill:#95a5a6;}.t{fill:#f5815b;}.u{fill:#f1be2a;}.v{fill:#f36f44;}.w{fill:#bdbec0;}.x{fill:#104350;}.y{fill:#19525f;}.z{fill:#90a4ae;}.aa{fill:#373636;}.ab{fill:#434343;}</style><linearGradient id="a" y1="0.5" x2="1" y2="0.5" gradientUnits="objectBoundingBox"><stop offset="0" stop-color="#ebebeb"/><stop offset="1" stop-color="#fff"/></linearGradient><clipPath id="b"><circle cx="58.6" cy="58.6" r="58.6" transform="translate(8.2 8.8)"/></clipPath></defs><g transform="translate(-8.2 -8.8)"><circle class="a" cx="58.6" cy="58.6" r="58.6" transform="translate(8.2 8.8)"/><g class="b"><path class="c" d="M126.5,101.5l3-22.9c.7-5,.5-7.9-.1-10a.969.969,0,0,0-.8-.7,2.832,2.832,0,0,0-2.8,1.8,37.815,37.815,0,0,0-1.7,8.2l-.3,2.9c-.3-3.6-.8-7.2-.9-8.7-.4-3.9-1.6-10.1-3.1-13.6L116,53.3l-3.1-2.7.2-.5-2.6-2h0l-1.4-1.4-.5.4c-.1-.1-.2-.2-.2-.3a2.3,2.3,0,0,1-.3-.9c.2.1.3.3.5.4l.1.1a.367.367,0,0,0,.3.1c.1,0,.2-.1.3-.2a15.307,15.307,0,0,0,2.9-6.8c.1-.9.1-5.1-1.7-4.9.4,0,.7-.2,1-.2l-.9-.6c-.1-.1-1-.4-1-.5,0-.5-.3-.7-.6-1.1-.1-.1-.1-.1-.2-.1-.1.2-.1.4-.3.6-.5-.2-.9-.7-1.4-.9a4.418,4.418,0,0,0-1.6-.6,7.393,7.393,0,0,0-3.3-.2,13.611,13.611,0,0,0-6,2.7,3.328,3.328,0,0,0-1.1,1.9c.1,0,.1,0,.2.1,0,.1-.1.1-.1.2l-.2.4L92.9,36v2.9l1.2.1v.1a.638.638,0,0,0,0,.6l.6,1.9a1.02,1.02,0,0,1-.2.9l-1,1.4a.98.98,0,0,0,.4,1.5c.6.3.5.9.6,1.4a.55.55,0,0,0,.3.5h.1v3.6H93.7v3h1.2v9.2c-.1-.1-.2-.1-.2-.2-.4-.3-1-.7-1.5-.3s-.3.7.1,1.1c-.4-.2-.7-.3-.9-.2-.3.2-.5,1-.1,1.2-.4-.2-.6,1.1-.5,1.3.2.3.9.5,1.2.7-.4-.1-.8-.4-1.2-.1a.713.713,0,0,0-.1,1.1,14.307,14.307,0,0,0,1.5,1.1,9.5,9.5,0,0,0,1.7,1v.6c-.3,0-.7-.1-1-.1-.5-.1-1.2-.2-1.4.4-.3.5.1.8.5.9-.4,0-.8,0-.9.2-.2.3,0,1.1.4,1.1-.5,0-.1,1.3.2,1.4.3.2,1,.1,1.4.1-.4.1-.9,0-1.2.4a.841.841,0,0,0,.4,1.1,8.586,8.586,0,0,0,1.7.3V83H85.8V78.5h1.5a2.006,2.006,0,0,0,2-2V71.1a.749.749,0,0,0-.1-.5V56.5H88.1V44.4h-.4V40.9l-1.6.8L85,44.3H82.9V56.4H79.7v8.2h-5L74,66.8H71.4a.43.43,0,0,0-.4.4v3.4a.43.43,0,0,0,.4.4H73l-.5,1.7H85l.5.1v1.7H72L61,64.8l.2-6.6L71,53.6a1.9,1.9,0,0,0,1.1-2.2h3.4a2.22,2.22,0,0,0,2.2-2.2V42.4a2.22,2.22,0,0,0-2.2-2.2H66.7a2.22,2.22,0,0,0-2.2,2.2V39.2H54.4a2.725,2.725,0,0,0-2.5,1.7H42.1v5.9h1l-.4,1.5-.4,1.3-.6-1.4c0-.4-.1-.8-.1-1.2a1.7,1.7,0,0,0-.1-.7,4.616,4.616,0,0,0-.7-1h.5c.8-.2.3-1.8.1-2.3a3.658,3.658,0,0,1-.3-2.5,5.973,5.973,0,0,1,.6-1.1c.2,0,.3.1.5.1.8-3.1.6-5.8-1.7-8.2a9.916,9.916,0,0,0-13-1.4,14.873,14.873,0,0,0-4.9,6.9,10.88,10.88,0,0,0-.7,3c-.1,3.2,1.8,6,3.8,8.1a4.348,4.348,0,0,0-.4.7,14.031,14.031,0,0,1-3.2,2.3l.1.2c-3.6,2.7-6,5.7-7,10.3a45.723,45.723,0,0,0-.6,9.8c0,3.4.1,6.9.1,10.3,0,.9-.4,2.2-.3,3,0,.1.1.2.1.3s-.1.2-.1.3A35.239,35.239,0,0,0,13,89.6a13.927,13.927,0,0,0-.5,2.3c-.4,2.7-.4,6.2.7,8.7a4.221,4.221,0,0,0,1.8,2.1H12.5a1.884,1.884,0,0,0,.2-.8L10.3,75a41.24,41.24,0,0,0-1.9-8.8,2.79,2.79,0,0,0-2.9-1.9.961.961,0,0,0-.9.7c-.6,2.2-.8,5.3-.1,10.6L7.9,100a4.2,4.2,0,0,0,1.9,2.9A2.227,2.227,0,0,0,8.5,105v.1a2.582,2.582,0,0,0,2.6,2.6H25.8v31H16.9a3.585,3.585,0,0,0-3.6,3.6H42.4a3.585,3.585,0,0,0-3.6-3.6h-.9a1.7,1.7,0,0,1,0-1,55.414,55.414,0,0,1,2.5-6.8c1-2.3,1.6-4.7,2.9-6.8,2-3.3,4.3-6.5,6.5-9.8a27.309,27.309,0,0,0,1.7,7.1,15.836,15.836,0,0,1,1,4.3,14.079,14.079,0,0,1-.1,2.9c-.1.3-.1.6-.2.9v-.1c.1.3-.8,1.4-1,1.7a5.26,5.26,0,0,0-.1,3.5c.7,2.1.3,4,0,6.1l.7.2c.2-.4.1-1.1.2-1.4a23.255,23.255,0,0,1,.5-2.8,3.942,3.942,0,0,1,.5-1.4c.1-.1.2-.3.3-.4a.778.778,0,0,1,.8-.2c.7.2,1.3,1.8,1.5,2.4.2,1.5-.1,3,0,4.4v.2c0,.1.1.1.2.1.9.5,1.8,1,2.7,1.4a11.5,11.5,0,0,1,1.7.6c.5.2,3.7,1.5,3.6.3-.1-.8-1.2-1.4-1.6-1.9l-.1-.1h0c-.1-.1-.1-.2-.2-.3l-.5-.5h0a2.8,2.8,0,0,1-.8-1.2,59.364,59.364,0,0,1-1.4-7.1c-.3-2.5-1-4.8-1-7.4,0-1.7.9-19.8,1.2-26.4.1-.2.1-.3.2-.5a6.213,6.213,0,0,0,1-.3c-.2-1.2-1.5-3.3-3.1-5.1a8.321,8.321,0,0,0-1.7-1.6L32.5,86s.9-2.1,2-5c5.7,3.2,21.7,1.1,21.9,1.2l.1-.5,2.2.1a2.663,2.663,0,0,0,1.2-.3l3-1.7a2.2,2.2,0,0,1,1.4-.2c.8.1,1.6.3,2.3.4.4.1,1,.2,1-.4,0-.3-.3-.5-.5-.7A1.857,1.857,0,0,0,69,79c1-.6.6-.9-.2-1.3a23.493,23.493,0,0,0-3.7-1.4,1.729,1.729,0,0,0-1-.1l-3.7.7-2.8.6.1-.2c-.2-.1-11.2-.9-15.1-2.7-.1,0-.2-.1-.3-.1a17.88,17.88,0,0,0,2.1-6.4c.1-.6,2.1-10.2,1.7-10.2l-.3-.1V56.4a15.054,15.054,0,0,0,1.1-2.2c.4-.9.8-1.9,1.1-2.8.1-.4.4-.7.4-1.1,0-.2.1-.4,0-.6-.1-.1-.3-.4-.5-.4s-.4.3-.6.4a3.039,3.039,0,0,0-.5.7c.1-.4.3-.8.4-1.2a3.591,3.591,0,0,0,.2-1.8c-.1-.3-.3-.6-.7-.5-.3.1-.5.6-.6.9-.3.5-.6,1.1-.9,1.6.2-.7.5-1.4.7-2.1a1.689,1.689,0,0,1,.2-.5h5.3v.9a2.689,2.689,0,0,0,2.7,2.7H64.2V49.2a2.261,2.261,0,0,0,2,2.2l-8.1,3.8A1.848,1.848,0,0,0,57,56.9v8.8a1.683,1.683,0,0,0,.7,1.5L70,78a2.106,2.106,0,0,0,1.3.5H76V83h-.7V81.8a.8.8,0,0,0-1.6,0V83h-1V81.8a.8.8,0,1,0-1.6,0V83h-1V81.5a.684.684,0,0,0-.7-.7H61.7a.684.684,0,0,0-.7.7V83H47.8v4.6H58.7v3.8h12v44.9H62.9v4.6H74.4v.2l1.1-.1.1.4.1.7,15.4-.8h1l.1.1s5.3,0,5.1-.2c-.1-.1,0-.4,0-.9.1-.9.3-2.1.3-2.1l-1.1-3.7-.4-1.5h-.3l-.1-.4h0s-.3-2-.9-5.1l2-19.2h23.5l3.1,30.5a2.585,2.585,0,0,0-.8,2.1v.2h4.2v-.2c0-1.2-.4-2.1-1-2.2l-3.1-30.5h.7a2.433,2.433,0,0,0,2.4-2.4v-.1a2.013,2.013,0,0,0-1.2-1.9,2.459,2.459,0,0,0,1.9-2.3Zm-92.8.8a39.476,39.476,0,0,1,7.8.4H23c3.6-.1,7.1-.4,10.7-.4Zm-4,32.3c.1,0,.1.1.2.1.7-1,3.5-5.9,4.5-5.1.4.3.4,1.3.4,1.7a8.865,8.865,0,0,1-.7,2.8,5.851,5.851,0,0,0-.7,3.6,2.506,2.506,0,0,0,.4.7h-4v-3.8Zm9.9-17.8a15.969,15.969,0,0,1-1.4,4.2,12.54,12.54,0,0,1-1.6,2.4l-.6.6v-.1c0,.3-1.5.8-1.7,1a5.966,5.966,0,0,0-1.9,3,16.6,16.6,0,0,1-2.7,5.5V107.5H43a24.93,24.93,0,0,0-3.4,9.3Zm.8-61.4c-.5,2.2-1.4,4.9-2.2,7.5-.2-.5-.3-1-.5-1.4-.4-1.2-.8-2.5-1.2-3.7-.3-2.2-.9-4.1-3.1-5.2l-.4-.3v.2h-.1a11.514,11.514,0,0,1,.9-2.8c.1,0,.2.1.3.1a4.657,4.657,0,0,0,2,.6,1.751,1.751,0,0,0,1.7-1.1c.1-.3.1-.7.2-1s.4-.5.6-.8.2-.7-.1-.8c.2,0,.8.1.9-.1,0-.1.1-.1.1-.2a1.64,1.64,0,0,1,.7-1.1.367.367,0,0,1,.3-.1,4.8,4.8,0,0,0,0,1.2l.2,4.1.5,4.3-.1.9Zm3.8-7,.4-1.6h.2a4.418,4.418,0,0,0-.6,1.6ZM122,103.6c0,.1.1.2.1.4h-.7A1.538,1.538,0,0,0,122,103.6ZM97.8,54.3v-.7h1.7V51.4H98.2a10.267,10.267,0,0,0,2.4-.5,3.054,3.054,0,0,1,1.8,1.9h-.1c-.1.8-.3,1.3-.5,2.7a86.5,86.5,0,0,0-.5,8.8c-.1.2-.1.4-.2.6l.2-.2v.1a12.251,12.251,0,0,0-.2,1.9l-.9-.9-.2.3c-.2-.4-.4-.7-.6-1.1-.5-1-1.4-1.8-2-2.8,0-.1-.1-.2-.2-.4V54.1h.6Zm-.4,10.4c0,.1.1.2.1.3l-.1-.1ZM76.1,91.5h12V87.7H99V83H97.4V76.8h2.4a5.283,5.283,0,0,0,1.3-.1l2,2.4c.4,2,.9,4.3,1.4,7a14.979,14.979,0,0,1-.2,2.2c-6,1.3-12,3-17.9,4.7-4.5,1.3-8.5,2.7-9.1,7.9-.5,4.4,8,25.2,8,31.2h2c0,.1.1.3.1.4H88v.3h-.3a6.769,6.769,0,0,1-1,1.8,6.37,6.37,0,0,0-.7-.2c-.2,0-.4.1-.4.3s.1.4.3.4h.2a4.7,4.7,0,0,1-.9.6,3.508,3.508,0,0,0-.8-.5.381.381,0,1,0-.3.7c.1,0,.2.1.3.1-.1.1-.3.1-.4.2H76.2V91.5Zm17.6,17.1h.6l-1.1,10.8a118.565,118.565,0,0,0-4.4-16.1c.1,0,.1-.1.2-.1s.1,0,.1-.1c1.2,0,4.5.4,8.8.8H93.4a2.112,2.112,0,0,0-2.1,2.1,2.366,2.366,0,0,0,2.4,2.6Z"/><rect class="d" width="5.5" height="47.7" transform="translate(70.1 88.9)"/><rect class="e" width="51.1" height="4.6" transform="translate(47.2 82.4)"/><rect class="d" width="29.4" height="3.8" transform="translate(58.1 87.1)"/><path class="f" d="M78,70.6H71.3a.684.684,0,0,1-.7-.7V67.1a.684.684,0,0,1,.7-.7H78Z"/><path class="e" d="M86.8,78H70.7a2.106,2.106,0,0,1-1.3-.5L57.1,66.7a2.33,2.33,0,0,1-.7-1.5l.3-8.8a2.031,2.031,0,0,1,1.1-1.7l10.9-5.2A1.946,1.946,0,1,1,70.4,53l-9.8,4.6-.2,6.6,11,9.7H84.8V72.2l-10-1.1a2.01,2.01,0,1,1,.4-4L87,68.6a2.046,2.046,0,0,1,1.8,2V76A2.006,2.006,0,0,1,86.8,78Z"/><rect class="f" width="12.6" height="5.9" transform="translate(41.5 40.2)"/><path class="e" d="M53.9,38.6a2.689,2.689,0,0,0-2.7,2.7v5.9a2.689,2.689,0,0,0,2.7,2.7H64V38.6Z"/><path class="e" d="M63.9,41.8v6.8a2.22,2.22,0,0,0,2.2,2.2h8.8a2.22,2.22,0,0,0,2.2-2.2V41.8a2.22,2.22,0,0,0-2.2-2.2H66.1A2.22,2.22,0,0,0,63.9,41.8Z"/><circle class="g" cx="3.9" cy="3.9" r="3.9" transform="matrix(0.16, -0.987, 0.987, 0.16, 66.459, 48.269)"/><path class="f" d="M74.7,45.9H66.9a.645.645,0,0,1-.6-.6v-.8a.645.645,0,0,1,.6-.6h7.8a.645.645,0,0,1,.6.6v.8Q75.15,45.9,74.7,45.9Z"/><rect class="f" width="5.1" height="21.3" transform="translate(82.5 43.8)"/><path class="e" d="M88.7,72.3H71.8l2.5-8.2H88.7Z"/><rect class="e" width="9.4" height="15.9" transform="translate(79.3 55.9)"/><rect class="e" width="9.9" height="4.5" transform="translate(75.4 78)"/><path class="f" d="M69.4,82.5H60.3V81.4a1.216,1.216,0,0,1,1.2-1.2h6.8a1.216,1.216,0,0,1,1.2,1.2v1.1Z"/><path class="f" d="M71.2,80.4h0a.789.789,0,0,0-.8.8v1.3h1.7V81.2A.882.882,0,0,0,71.2,80.4Z"/><path class="f" d="M73.9,80.4h0a.789.789,0,0,0-.8.8v1.3h1.7V81.2a1.063,1.063,0,0,0-.9-.8Z"/><path class="f" d="M87.3,43.8H84.6l1.1-2.7,1.6-.8Z"/><rect class="h" width="4" height="34" transform="translate(29.08 139.706) rotate(180)"/><path class="i" d="M54.8,95.8l-.7-1a13.2,13.2,0,0,0,2.8.2,2.2,2.2,0,0,1,1.4.2,1.676,1.676,0,0,1,.3,1.2c-.1,2.8-1.3,26.6-1.3,28.5,0,2.5.7,4.9,1,7.4a42.468,42.468,0,0,0,1.4,7.1,4.184,4.184,0,0,0,.8,1.2c.2.3.5.5.7.8a1.612,1.612,0,0,1-.7.4,2.353,2.353,0,0,1-.8.2l-2-.5h0a3.976,3.976,0,0,1-1.6-2.2c-.3-.9-.1-1.9-.5-2.8a16.473,16.473,0,0,0-1.9-2.7,10.1,10.1,0,0,0-1.3-1.6c-.4-.4-.8-.6-1.2-1-.6-.6-.3-.8-.1-1.5a12.091,12.091,0,0,0,.5-1.8,14.079,14.079,0,0,0,.1-2.9,15.836,15.836,0,0,0-1-4.3,24.222,24.222,0,0,1-1.8-10.6,31.093,31.093,0,0,1,.8-4.4,23.553,23.553,0,0,0,1-4.6c0-1-.4-2-.5-3.1-.1-.8-.2-1.6-.3-2.5Z"/><path class="j" d="M50.3,130.3c.1-.3,1.1-1.5,1-1.7,1.5,3.7,4.9,6.6,5.6,10.6a2.015,2.015,0,0,0,1.7,1.7c.2.1,2.1-.2,2-.4a6.472,6.472,0,0,1,.8.9c.4.6,1.5,1.2,1.6,1.9.2,1.2-3.1-.1-3.6-.3s-1.1-.4-1.7-.6A13.833,13.833,0,0,1,55,141c-.1,0-.1-.1-.2-.1v-.2c-.1-1.5.2-3,0-4.4-.1-.6-.8-2.2-1.5-2.4a.778.778,0,0,0-.8.2,1.381,1.381,0,0,0-.3.4,3.36,3.36,0,0,0-.5,1.4,27.408,27.408,0,0,0-.5,2.8,3.644,3.644,0,0,1-.2,1.4l-.7-.2c.2-2.1.7-4,0-6.1a4.706,4.706,0,0,1,0-3.5Z"/><path class="k" d="M55.2,95.7a4.4,4.4,0,0,0,1-.2c2.4-.5,3.2,1.2,2.3,3.1a42.68,42.68,0,0,1-3.5,6.7c-1.8,2.4-3.7,4.8-5.4,7.3-2.4,3.6-4.9,7.1-7.1,10.7-1.3,2.2-1.9,4.5-2.9,6.8a55.416,55.416,0,0,0-2.5,6.8,3.929,3.929,0,0,0,.1,1.5,4.4,4.4,0,0,1,.2,1,2.152,2.152,0,0,1-.8,0,2.354,2.354,0,0,1-.8-.2l-1.5-1.4h0a3.185,3.185,0,0,1-.2-2.7c.2-.9.9-1.7,1-2.7a18.413,18.413,0,0,0-.3-3.3,12,12,0,0,0-.3-2c-.1-.5-.4-1-.5-1.5-.2-.8.2-.8.7-1.3a16.6,16.6,0,0,0,1.4-1.3,12.54,12.54,0,0,0,1.6-2.4,15.969,15.969,0,0,0,1.4-4.2,24.075,24.075,0,0,1,3.9-10,31.748,31.748,0,0,1,3-3.4c1-1,2.5-2.1,3.2-3.4.5-.9.7-2,1.1-2.9a24.03,24.03,0,0,1,1.1-2.3C52.8,95.5,53.7,95.9,55.2,95.7Z"/><path class="j" d="M33.7,124.4c.3-.2,1.7-.7,1.7-1-.3,2,.3,3.8.4,5.8a21.863,21.863,0,0,1-.3,3.6,14.159,14.159,0,0,1-.4,2,9.829,9.829,0,0,0-.5,1.6,2.333,2.333,0,0,0,1,1.7,9.827,9.827,0,0,0,1.6.5c.6.3,1.8,2.9.7,3a2.851,2.851,0,0,1-1.4-.8c-.7-.5-1.4-1-2.1-1.6-.5-.5-1.5-1.1-1.7-1.9a5.6,5.6,0,0,1,.7-3.6,6.812,6.812,0,0,0,.7-2.8c0-.5,0-1.4-.4-1.7-1-.9-3.8,4.1-4.5,5.1a4.233,4.233,0,0,0-.7-.5c1.3-1.9,2.8-4,3.3-6.3a5.844,5.844,0,0,1,1.9-3.1Z"/><path class="l" d="M13.8,84.4c.2-.3.3-.5.4-.5a10.758,10.758,0,0,0,1.6.1c4.3.4,16.1,1.4,16.1,1.4L55,90.9a12.048,12.048,0,0,1,1.7,1.6c1.5,1.8,2.9,4,3.1,5.1-.4.3-1.5.4-1.9.7-.7.5-1.4,1-2,1.4-.7.5-1.5,1-2.2,1.5-14-3.4-27.7-8-41.2-12.3a24.976,24.976,0,0,1,1.3-4.5Z"/><path class="m" d="M12.4,88.9c13.5,4.3,27.1,8.9,41.2,12.3-.7.5-1.4,1-2.2,1.5-2.4,1.6-4.6,3.5-7.6,3.3,3.8-4.8-8.7-4.3-10.6-4.3-4.4,0-8.7.4-13,.4-1.2,0-4.6.6-5.6,0a5.179,5.179,0,0,1-1.9-2.2c-1.2-2.5-1.1-6-.7-8.7a6.914,6.914,0,0,1,.4-2.3Z"/><path class="k" d="M55.7,77.3l4.3-.9,3.7-.7a1.645,1.645,0,0,1,1,.1c1.2.5,2.5.8,3.7,1.4.8.4,1.1.7.2,1.3a1.66,1.66,0,0,1-1.9-.1c.2.2.5.4.5.7,0,.6-.6.4-1,.4-.8-.1-1.6-.3-2.3-.4a2.2,2.2,0,0,0-1.4.2l-3,1.7a2.663,2.663,0,0,1-1.2.3l-2.8-.1Z"/><path class="n" d="M30.2,51.5a6.448,6.448,0,0,1,2,.3c3.8,1.3,3.4,5,4.2,8.3.6,2.8,1.6,5.5,2,8.3a11.851,11.851,0,0,0,.5,3.2c.5,1.6,1.7,1.8,3.2,2.5C46,75.9,57,76.7,57.2,76.8l-1.3,4.9c-.3-.1-20.2,2.5-23.5-2.6a25.281,25.281,0,0,1-1.8-3.7c-1.8-3.8-4.2-7.6-4.5-11.9-.3-3.7-2-8.9,1.9-11.3a4.1,4.1,0,0,1,2.2-.7Z"/><path class="o" d="M27.6,40c1,1.4,1.8,2.5,2.5,3.5A26.273,26.273,0,0,0,34,47.9a9.424,9.424,0,0,0-1.6,6.3A23.6,23.6,0,0,1,27.6,40Z"/><path class="i" d="M21.6,50.9A17.1,17.1,0,0,0,23,49.8a9.551,9.551,0,0,0,2.4-2.9A18.608,18.608,0,0,0,27.6,40v.1a23.1,23.1,0,0,0,4.8,14.1.9.9,0,0,0,.1.5c.9,2.4,1.7,4.3,0,5-1.4.6-5.7-1.9-7.4-2.9a7.234,7.234,0,0,1-.7-.4c-.3-.2-.5-1.5-.6-1.9a5.576,5.576,0,0,0-.7-1.6,1.8,1.8,0,0,0-.9-.6c-.4-.1-1.2-.1-1.5-.4C20.2,51.5,21.2,51.2,21.6,50.9Z"/><path class="k" d="M38,46.2c.3.1.3.6.1.8-.2.3-.4.5-.6.8-.1.3-.1.7-.2,1a1.751,1.751,0,0,1-1.7,1.1,4.657,4.657,0,0,1-2-.6,13.1,13.1,0,0,1-5.9-5.5,14.916,14.916,0,0,1-.9-7.3,13.755,13.755,0,0,1,.8-4.5,4.129,4.129,0,0,1,.7-1.1c2.4-3.3,6.6-3,9.8-1.2a7.513,7.513,0,0,1,3.1,9.2c-.2.4-.4.7-.6,1.1a4.349,4.349,0,0,0,.3,2.5c.2.5.7,2-.1,2.3-.4.1-.8-.1-1.2.1a1.64,1.64,0,0,0-.7,1.1c0,.1,0,.1-.1.2C38.9,46.3,38.2,46.3,38,46.2Z"/><path class="j" d="M34.7,65.8c-3.9-3-5.7-6.8-7.6-11v-.3c3.9,1.3,6.2.8,7.2.3C34.7,58.5,35.4,62,34.7,65.8Z"/><path class="p" d="M35.1,66.1c.8-3.8-.4-7.6-.8-11.4a2.583,2.583,0,0,0,.8-.5l2.6,12-2.4,7.6-6.9-2.3s-.8-5.3-1.3-16.8C29,59,31.2,63.1,35.1,66.1Z"/><path class="l" d="M31.9,85.5s-5.5-.3-16.5-1.5c7.7-1.7,15.3-5.9,21.5-10.9C34.8,78.5,31.9,85.5,31.9,85.5Z"/><path class="l" d="M38.4,65c-.4-1.4-.9-2.8-1.3-4.1-.5-1.5-1-3.1-1.5-4.6-.3-.8-.5-1.5-.8-2.3-.1.1-.2.1-.4.1h0c.1.7.3,1.4.4,2,.2,1.6.3,3.1.4,4.7v2.5c0,.4-.8,2.2-.8,2.6A7,7,0,0,0,33,64.3c-1-1.3-2-2.5-3.1-3.8-1.8-2.3-3.5-4.7-5.1-7.1a24.577,24.577,0,0,1-2.2-3.9c-4.1,2.8-6.9,6-8,11a56.525,56.525,0,0,0-.6,10c0,3.4.1,6.9.1,10.3,0,.9-.4,2.2-.3,3,.2,1,.7.1,1.5.2,7.7-1.7,15.3-5.9,21.5-10.9C38,70,39,67.4,39,67.1A9.651,9.651,0,0,0,38.4,65Z"/><path class="q" d="M21.4,39.1a8.19,8.19,0,0,1,.7-3A15.4,15.4,0,0,1,27,29.2a9.9,9.9,0,0,1,8.5-1.4A10.1,10.1,0,0,1,40,30.6c2.3,2.4,2.6,5.1,1.7,8.2-.9-.2-1.8-.3-2.6-.4a4.533,4.533,0,0,0,.2-2.3,27.178,27.178,0,0,0-1.1,2.5,8.834,8.834,0,0,0-2.8.2s-.2-1.6-.7-1.6-1.4,1.4-1.6,1.7A12.384,12.384,0,0,0,31,43.4a33.154,33.154,0,0,0-1.1,7.4C28.8,50.3,21.2,45.6,21.4,39.1Z"/><path class="d" d="M45,104.4h0a2.582,2.582,0,0,1-2.6,2.6H10.5a2.582,2.582,0,0,1-2.6-2.6v-.1H45Z"/><path class="r" d="M10.2,102.1H42.7a2.263,2.263,0,0,1,2.3,2.3H7.9a2.263,2.263,0,0,1,2.3-2.3Z"/><path class="r" d="M9.8,74.4l2.4,26.9a1.4,1.4,0,0,1-1.6,1.5h0a4.038,4.038,0,0,1-3.3-3.3L4,75.1c-.7-5.4-.6-8.4.1-10.6a.948.948,0,0,1,.9-.8H5a2.755,2.755,0,0,1,2.9,1.9,41.24,41.24,0,0,1,1.9,8.8Z"/><path class="m" d="M32.5,51.7l2,14.1,2.1-5.5-1.9-3.6V53.5Z"/><path class="m" d="M34.5,65.8a56.232,56.232,0,0,0-7.7-12.3c-.7-.8-2.8-4.5-2-5.6a13.534,13.534,0,0,1-3.3,2.3L24.1,55l4.2,2.5-.6,2.1Z"/><path class="h" d="M125.6,140.5l-3.4-33.6-2.5.5,3.4,33.1Z"/><path class="h" d="M92.9,140.5l3.4-33.1-2.5-.5-3.4,33.6Z"/><path class="d" d="M90.6,105.5h0a2.476,2.476,0,0,0,2.5,2.5H123a2.433,2.433,0,0,0,2.4-2.4v-.1Z"/><path class="r" d="M123.3,103.4H92.8a2.112,2.112,0,0,0-2.1,2.1h34.8A2.27,2.27,0,0,0,123.3,103.4Z"/><path class="r" d="M123.6,77.4l-2.2,25.3a1.342,1.342,0,0,0,1.5,1.4h0A3.829,3.829,0,0,0,126,101l3-22.9c.7-5,.5-7.9-.1-10a.969.969,0,0,0-.8-.7h0a2.832,2.832,0,0,0-2.8,1.8,45.094,45.094,0,0,0-1.7,8.2Z"/><path class="s" d="M87.4,130.8c-.3.2,0,2.1,0,2.1l6.6-.8-.5-2.5Z"/><path class="t" d="M94.6,133.1l-.4-1.5-7.2.7a5.825,5.825,0,0,1-3.2,3.4c-2.2.8-5.2,3.3-9.9,2.8a.5.5,0,0,0-.5.6l.2,1,16.5-.8a7.963,7.963,0,0,1,4.5-6.2Z"/><path class="u" d="M90.1,139.1l5.2-.3c.1-.9.3-2.1.3-2.1L94.5,133a8.433,8.433,0,0,0-4.4,6.1Z"/><path class="h" d="M87.1,136.1c-.2,0-.3-.1-.3-.2a1.881,1.881,0,0,0-1.5-1.2c-.2,0-.3-.2-.3-.4s.2-.3.4-.3a2.49,2.49,0,0,1,2.1,1.7.365.365,0,0,1-.2.5Z"/><path class="s" d="M88.7,131.9c-.3.2,0,2.1,0,2.1l6.6-.8-.5-2.5Z"/><path class="t" d="M95.9,134.1l-.4-1.5-7.2.7a5.825,5.825,0,0,1-3.2,3.4c-2.2.8-5.2,3.3-9.9,2.8a.5.5,0,0,0-.5.6l.2,1,16.5-.8a7.963,7.963,0,0,1,4.5-6.2Z"/><path class="v" d="M91.4,140.2l5.2-.3c.1-.9.3-2.1.3-2.1l-1.1-3.7C93.4,135.1,91.9,137.6,91.4,140.2Z"/><path class="k" d="M99.9,70.8c-.5-.4-1-.7-1.5-1.1-.9-.7-2.1-1-3-1.7-.3-.2-1.1-1-1.5-.9-.1,0-.1.1-.2.2-.5,1.3,1.1,1.9,1.9,2.4.3.2.6.5.9.7-1.1-.1-2.1-.2-3.2-.4-.5-.1-1.2-.2-1.4.4-.5,1.1,1.5,1.1,2.1,1.1-.5-.1-2.1-.5-2.5,0-.2.3,0,1.1.4,1.1-.5,0-.1,1.3.2,1.4.3.2,1,.1,1.4.1-.4.1-.9,0-1.2.4a.841.841,0,0,0,.4,1.1,12.505,12.505,0,0,0,1.9.3,16.351,16.351,0,0,0,2.2.2H99a8.755,8.755,0,0,0,2.8-.6l-1.2-4.3S100.1,70.9,99.9,70.8Z"/><path class="k" d="M108.1,46.4c-.9-1.5.4-1.6,1.3-2.8a6.575,6.575,0,0,0-2.1-9.8c-3-1.6-7.5-2.5-10.6-.6a2.045,2.045,0,0,1,0,1.1v.4l-.9.2a.969.969,0,0,0-.8.7l-1.1,3.2a.638.638,0,0,0,0,.6l.6,1.9a1.02,1.02,0,0,1-.2.9l-1,1.4a.98.98,0,0,0,.4,1.5c.6.3.5.9.6,1.4a.55.55,0,0,0,.3.5c.1.1.4.2.3.3a.675.675,0,0,0,.1,1c.5.5.1,1.4.4,2a.666.666,0,0,0,.7.5h1.8a10.267,10.267,0,0,0,2.4-.5,3.576,3.576,0,0,1,2.1,2.8,12.294,12.294,0,0,0,1.4,2.5c.6.6,1.1-.1,1.8-.6a14.963,14.963,0,0,0,3.5-3.6c.6-.9,1.3-1.2.8-2.1C109.7,49,108.2,46.7,108.1,46.4Z"/><path class="q" d="M108.3,45.9a5.331,5.331,0,0,1-1.8-2.2c-.2-1,.3-2,.1-3a2.377,2.377,0,0,0-1.7-1.9,1.941,1.941,0,0,0-1.6.5c-.5.5.2,2.7-.1,2.9s-.8.3-1,.1c-.1-.1-.1-.2-.2-.3a14.166,14.166,0,0,0-.8-1.8c-.2-.3-1-.4-1-.8a6.349,6.349,0,0,0-.4-2.7,2.271,2.271,0,0,0-2-1.5c-1,0-2,.6-3,.1a3.991,3.991,0,0,1,1.1-1.9,11.7,11.7,0,0,1,6-2.7,9.2,9.2,0,0,1,3.3.2,10.41,10.41,0,0,1,1.6.6c.5.2.9.7,1.4.9l.3-.6a.349.349,0,0,1,.2.1c.3.4.6.6.6,1.1,0,.1.9.4,1,.5l.9.6c-.4,0-.7.2-1,.2,1.8-.2,1.8,4.1,1.7,4.9A15.805,15.805,0,0,1,109,46c-.1.1-.2.2-.3.2s-.2-.1-.3-.1C108.4,46,108.3,46,108.3,45.9Z"/><path class="w" d="M101.9,52.2a21.216,21.216,0,0,0-.5,2.8,67,67,0,0,0-.4,10.9c.1,1.4.3,3.3.6,5.5,3-5.8,6.1-9.2,7.6-12.2,2-3.8,3.2-6.9,3.2-7.9a2.915,2.915,0,0,0-1.4-2.6c-2.7-1.9-7.2,3.1-7.2,3.1Z"/><path class="j" d="M108.8,46.3l-7,6,2.2,2.4,7.4-5.7Z"/><path class="x" d="M101.3,62.6a26.62,26.62,0,0,1,6.2-10.5l3.9-2.9,4.1,3.7,3.8,5.2a58.276,58.276,0,0,1,3.1,13.6c.3,3,1.8,14.4,1.3,17.4-6.8.4-13.1-2.8-19.7-1.9C101.6,73.1,99.4,68.7,101.3,62.6Z"/><path class="y" d="M110.2,47.7s-7.4,8.9-9.5,16.7c4.8-6.7,7-7,7-7l-.7-4,2.7,1.6,2.9-5.3Z"/><rect class="z" width="2.3" height="46.5" transform="translate(94.5 36.4)"/><path class="k" d="M99.8,66.2c-.3-.5-.5-1.1-.8-1.6-.5-1-1.4-1.8-2-2.8-.2-.3-.6-1.4-.9-1.5-.1,0-.2,0-.2.1-1.1.9.2,2.2.7,3,.2.3.3.7.5,1-.9-.6-1.8-1.1-2.7-1.7-.4-.3-1-.7-1.5-.3-1,.7.9,1.6,1.4,1.9-.4-.3-1.7-1.4-2.2-1.1-.3.2-.5,1-.1,1.2-.4-.2-.6,1.1-.5,1.3.2.3.9.5,1.2.7-.4-.1-.8-.4-1.2-.1a.713.713,0,0,0-.1,1.1,14.307,14.307,0,0,0,1.5,1.1,9.3,9.3,0,0,0,1.9,1.1,17.377,17.377,0,0,1,1.9,1,8.233,8.233,0,0,0,2.8.7l.8-4.4C100.2,66.9,99.9,66.4,99.8,66.2Z"/><path class="e" d="M92.7,35.6l-.1,2.9,3,.4,3.5-.1.1-2.9-3.6.1Z"/><rect class="f" width="2.2" height="4.8" transform="translate(94.176 52.948) rotate(-88.921)"/><rect class="e" width="4" height="3" transform="translate(93.3 50.8)"/><path class="k" d="M44.9,59.1l.4-2.1V55.7a15.054,15.054,0,0,0,1.1-2.2c.4-.9.8-1.9,1.1-2.8.1-.4.4-.7.4-1.1,0-.2.1-.4,0-.6-.1-.1-.3-.4-.5-.4s-.4.3-.6.4a3.039,3.039,0,0,0-.5.7c.1-.4.3-.8.4-1.2a3.591,3.591,0,0,0,.2-1.8c-.1-.3-.3-.6-.7-.5-.3.1-.5.6-.6.9-.3.5-.6,1.1-.9,1.6.2-.7.5-1.4.7-2.1.2-.6.7-2-.1-2.4-.6-.3-.8.4-1,.9-.3.9-.7,1.7-1,2.6L44.6,42a.752.752,0,0,0-.5-.7H44c-.4-.1-.7.5-.8.8l-1.4,5.5-.4,1.3-.6-1.4c0-.4-.1-.8-.1-1.2a1.7,1.7,0,0,0-.1-.7c-.1-.2-.7-1.2-1-1.1s-.1,1.1-.1,1.3l.2,4.1.5,4.3.2,2.8-.3,1.2,4.6.9Z"/><path class="n" d="M39.8,54.8c-.9,4-3,9.5-3.9,13.5C35.2,65.8,25.3,54.5,24.6,54c-2.5-1.7-5.6-2.6-7.3,1.1-1,2.2-.4,5.2.6,7.4s3.4,3.6,5.2,5.5c2.1,2.2,12,10,14,10.2s5.9-4.3,6.7-10.7c.1-.6,2.1-10.2,1.7-10.2Z"/><path class="aa" d="M108,86.8l-2.7.6c-6.5,1.4-13.2,3.2-19.6,5-4.5,1.3-8.5,2.7-9.1,7.9-.5,4.4,8,25.2,8,31.2,8.9,0,9-.5,9-.5s-6.5-17.4-7.2-27.1c.1-.2.3-.3.4-.5a4.352,4.352,0,0,1,1.5-.8,12.092,12.092,0,0,0,5.5-3.9,26.046,26.046,0,0,1,3.6-3.8c2.8-2.2,4.6-3.8,8-5,4.8-1.7,10.6-3.2,15.8-3Z"/><path class="ab" d="M123.9,91.9c-.1-.5-.9-4.8-1.7-4.8l-14.4,1.4C103.2,89.8,95.5,90.8,90,92c-1.9.5-3.7,1.1-5.6,1.6a6.746,6.746,0,0,1-1.7.3c-.1.1-.3.2-.4.3L79,96.9c-.6,2.4-.7,5.7.3,7.7.7,4.2,6.2,21.7,7.4,27.1,6.4.4,8.4.4,8.4.4s-3.2-20.2-7-29.7c1.3-.2,23.9,2.9,32.2,1C123.8,102.8,124.3,95.5,123.9,91.9Z"/><path class="x" d="M104,82.7c6.7.2,12.8,3.7,19.6,4.4a85.533,85.533,0,0,1,0,12.4l-21-3.1c.1-6,1.2-8.1,1.2-11.3C103.8,84.4,104,83.4,104,82.7Z"/><path class="y" d="M116.9,85.5a6.238,6.238,0,0,0,1.3-3.4c.2-5.4-.4-13.1-.6-18.4-.2-4-2.7-9.8-7.6-8.6-6.4,1.6-4.7,8.6-3,13.1a40.43,40.43,0,0,1,1.8,5.6l-9.2-8.3L96,71l9.7,11.4,3.1,2.7,6.2,1.2a4.061,4.061,0,0,0,1.9-.8Z"/></g></g></svg>