<svg xmlns="http://www.w3.org/2000/svg" xmlns:xlink="http://www.w3.org/1999/xlink" width="603" height="456.934" viewBox="0 0 603 456.934"><defs><style>.a{fill:#f3f3f3;}.b{fill:#fff;}.c{fill:url(#a);}.d{fill:#00b3eb;}.e{fill:#2b95bf;}.f{fill:#e0e0e0;}.g{fill:url(#b);}.h{fill:url(#c);}.i{fill:url(#d);}.j{fill:url(#e);}.k{fill:url(#f);}.l,.o{fill:#f5f5f5;}.m{fill:url(#g);}.n{fill:url(#j);}.o{mix-blend-mode:hard-light;isolation:isolate;}.p{fill:#537ffd;}.q{fill:#4ba6f3;}.r{fill:#46bbed;}.s{fill:url(#k);}.t{fill:url(#l);}.u{fill:#b3b7c4;}.v{fill:#2d2d30;}.w{fill:#eea886;}.x{fill:#dbdff0;}.y{fill:#3b3b40;}.z{fill:#2d3133;}.aa{fill:#e55353;}.ab{fill:#a77860;}.ac{fill:#616161;}.ad{fill:#e0cec7;}.ae{fill:url(#m);}.af{fill:#2d5bad;}.ag{fill:#5d96ff;}.ah{fill:#202338;}.ai{fill:#81807e;}.aj{fill:#292c47;}.ak{fill:#dbd8e3;}.al{fill:#1d2033;}.am{fill:#323657;}.an{fill:#eea987;}.ao{fill:#d44040;}.ap{fill:#c4c1cc;}.aq{fill:#3a4066;}.ar{fill:#d88a51;}.as{fill:#353a3d;}.at{fill:#ead8cf;}.au{fill:#eddcc5;}.av{fill:#3d3e52;}.aw{fill:#4b5257;}.ax{fill:#b84242;}.ay{fill:#d5bcb1;}.az{fill:#4d6ea3;}.ba{fill:#bdaea7;}.bb{fill:#5b83c2;}.bc{fill:#b08a63;}.bd{fill:#ffcb55;}</style><linearGradient id="a" x1="4.624" y1="-24.149" x2="6.55" y2="-24.149" gradientUnits="objectBoundingBox"><stop offset="0" stop-color="#40d5e6"/><stop offset="1" stop-color="#57f"/></linearGradient><linearGradient id="b" x1="0.5" y1="2.379" x2="0.5" y2="-1.34" gradientUnits="objectBoundingBox"><stop offset="0" stop-color="#f9a220"/><stop offset="1" stop-color="#f97020"/></linearGradient><linearGradient id="c" x1="0.5" y1="1.98" x2="0.5" y2="-0.664" xlink:href="#b"/><linearGradient id="d" x1="0.5" y1="1.852" x2="0.5" y2="-0.446" xlink:href="#b"/><linearGradient id="e" x1="0.5" y1="1.808" x2="0.5" y2="-0.371" xlink:href="#b"/><linearGradient id="f" x1="0.48" y1="1.366" x2="0.515" y2="-0.134" gradientUnits="objectBoundingBox"><stop offset="0" stop-color="#0d95c9"/><stop offset="1" stop-color="#2ac4f4"/></linearGradient><linearGradient id="g" x1="0" y1="0.5" x2="1" y2="0.5" xlink:href="#f"/><linearGradient id="j" x1="0.5" y1="1.181" x2="0.5" y2="0.484" gradientUnits="objectBoundingBox"><stop offset="0" stop-color="#7db3e0"/><stop offset="1" stop-color="#fff"/></linearGradient><linearGradient id="k" x1="0.557" y1="5.233" x2="0.424" y2="-5.763" xlink:href="#b"/><linearGradient id="l" x1="0.638" y1="5.266" x2="0.319" y2="-5.73" xlink:href="#b"/><linearGradient id="m" x1="0.322" y1="-0.146" x2="0.748" y2="1.402" xlink:href="#f"/></defs><g transform="translate(-629.961 -213.07)"><g transform="translate(629.961 213.07)"><g transform="translate(326.285 161.93)"><rect class="a" width="2.081" height="218.299"/></g><rect class="b" width="22.43" height="5.69" transform="translate(327.325 135.031)"/><rect class="b" width="17.948" height="5.69" transform="translate(327.325 145.549)"/><rect class="b" width="23.538" height="7.587" transform="translate(328.365 393.162)"/><g transform="translate(382.82 0)"><g transform="translate(0 51.216)"><path class="c" d="M1888.36,377.335s55.358,65.639,20.241,108.142-44.778.828-44.778.828-21.017,3.9,15.386-49.26C1896.369,411.987,1888.36,377.335,1888.36,377.335Z" transform="translate(-1857.788 -377.335)"/></g><g transform="translate(39.476)"><path class="d" d="M2096.834,213.07s41.126,60.7-30.476,130.622-66.279,111.626-66.279,111.626S1926.873,312.014,2096.834,213.07Z" transform="translate(-1984.401 -213.07)"/></g><g transform="translate(30.591 74.375)"><path class="e" d="M1967.1,593.111c-30.04,2.711,4.814-78.513,51.745-99.718s86.636-19.406,114.077-41.779C2132.922,451.614,2115.024,579.762,1967.1,593.111Z" transform="translate(-1955.901 -451.614)"/></g></g><g transform="translate(119.537 161.93)"><rect class="f" width="2.081" height="218.299"/></g><g transform="translate(267.48 161.93)"><rect class="a" width="2.081" height="218.299"/></g><g transform="translate(415.423 161.93)"><rect class="a" width="2.081" height="218.299"/></g><rect class="f" width="35.436" height="5.69" transform="translate(120.577 135.031)"/><rect class="f" width="50.265" height="5.69" transform="translate(120.577 145.549)"/><rect class="b" width="41.603" height="5.69" transform="translate(266.926 135.031)"/><rect class="b" width="26.601" height="5.69" transform="translate(266.926 145.549)"/><rect class="b" width="25.78" height="5.69" transform="translate(417.504 135.031)"/><rect class="b" width="30.048" height="5.69" transform="translate(417.504 145.549)"/><rect class="b" width="37.552" height="5.69" transform="translate(565.448 135.031)"/><rect class="b" width="30.048" height="5.69" transform="translate(565.448 145.549)"/><rect class="b" width="23.538" height="7.587" transform="translate(268.521 393.162)"/><rect class="b" width="23.537" height="7.587" transform="translate(417.504 393.162)"/><g transform="translate(34.883 221.45)"><g transform="translate(0 21.689)"><rect class="f" width="7.109" height="30.697"/></g><g transform="translate(17.653 9.218)"><rect class="f" width="7.109" height="43.168"/></g><g transform="translate(35.305 2.711)"><rect class="f" width="7.109" height="49.675"/></g><g transform="translate(52.958)"><rect class="f" width="7.109" height="52.386"/></g><g transform="translate(0 33.128)"><rect class="g" width="7.109" height="19.259"/></g><g transform="translate(17.653 25.303)"><rect class="h" width="7.109" height="27.083"/></g><g transform="translate(35.305 21.221)"><rect class="i" width="7.109" height="31.165"/></g><g transform="translate(52.958 19.52)"><rect class="j" width="7.109" height="32.866"/></g></g><g transform="translate(206.033 68.031)"><rect class="k" width="259.929" height="343.899" rx="59.945" transform="translate(259.929 343.899) rotate(180)"/></g><path class="l" d="M40.255,0H229.169a0,0,0,0,1,0,0V367.211a0,0,0,0,1,0,0H0a0,0,0,0,1,0,0V40.255A40.255,40.255,0,0,1,40.255,0Z" transform="translate(221.413 27.377)"/><rect class="m" width="67.572" height="8.546" transform="translate(361.656 98.938)"/><rect class="m" width="62.027" height="8.546" transform="translate(361.656 134.763)"/><rect class="m" width="53.668" height="8.546" transform="translate(361.656 116.85)"/><g transform="translate(235.932 47.297)"><path class="n" d="M1439.894,471.216a52.768,52.768,0,0,1-22-4.744,53.225,53.225,0,1,1,43.995,0A52.761,52.761,0,0,1,1439.894,471.216Zm0-103.638a50.423,50.423,0,1,0,50.415,50.414A50.472,50.472,0,0,0,1439.894,367.578Z" transform="translate(-1386.67 -364.768)"/></g><g transform="translate(235.932 175.171)"><rect class="e" width="77.642" height="7.621"/><g transform="translate(0 20.502)"><rect class="f" width="77.642" height="7.621"/></g><g transform="translate(0 41.004)"><rect class="f" width="77.642" height="7.621"/></g></g><g transform="translate(329.42 175.171)"><rect class="e" width="12.96" height="7.621"/><g transform="translate(0 20.502)"><rect class="f" width="12.96" height="7.621"/></g><g transform="translate(0 41.004)"><rect class="f" width="12.96" height="7.621"/></g></g><rect class="o" width="155.122" height="235.554" rx="74.729" transform="translate(360.876 167.495)"/><g transform="translate(448.555 185.682)"><path class="f" d="M2117.929,825.459a25.392,25.392,0,1,0-47.817,17.1q.288.806.625,1.583a25.393,25.393,0,0,0,47.192-18.685Zm-17.5,26.477a19.016,19.016,0,0,1-23.867-10.329c-.168-.387-.325-.784-.47-1.187a19.038,19.038,0,1,1,24.337,11.516Z" transform="translate(-2068.621 -808.61)"/><g transform="translate(1.159 0.011)"><path class="p" d="M2078.406,828.361l-6.067-1.895a25.428,25.428,0,0,1,23.481-17.819l.189,6.353a19.067,19.067,0,0,0-17.6,13.361Z" transform="translate(-2072.339 -808.647)"/></g><g transform="translate(0 17.83)"><path class="q" d="M2076.564,880.964l-5.828,2.536q-.337-.775-.625-1.583a25.281,25.281,0,0,1-.331-16.119l6.067,1.895a18.955,18.955,0,0,0,.247,12.084C2076.239,880.18,2076.4,880.577,2076.564,880.964Z" transform="translate(-2068.621 -865.798)"/></g><g transform="translate(2.115 32.996)"><path class="r" d="M2079.342,923.3a25.248,25.248,0,0,1-3.937-6.321l5.828-2.536a18.916,18.916,0,0,0,2.95,4.74Z" transform="translate(-2075.406 -914.44)"/></g></g><g transform="translate(460.043 349.872)"><rect class="d" width="13.688" height="44.879"/></g><g transform="translate(439.695 362.459)"><rect class="d" width="13.687" height="32.292"/></g><g transform="translate(479.783 329.072)"><rect class="d" width="13.688" height="65.679"/></g><g transform="translate(380.41 254.863)"><path class="r" d="M1851.247,1120.882l-1.189-.914,22.3-29.021,27.528,1.494,20.758-33.057,22.362-2.307,13.438-26.579,1.339.677-13.807,27.309-22.45,2.317-20.839,33.185-27.62-1.5Z" transform="translate(-1850.058 -1030.499)"/></g><path class="e" d="M1893.431,837.9h-38.923a4.45,4.45,0,0,1-4.449-4.45h0a4.449,4.449,0,0,1,4.449-4.449h38.923a4.449,4.449,0,0,1,4.45,4.449h0A4.45,4.45,0,0,1,1893.431,837.9Z" transform="translate(-1469.648 -636.958)"/><path class="f" d="M1893.431,887.685h-38.923a4.45,4.45,0,0,1-4.449-4.45h0a4.45,4.45,0,0,1,4.449-4.449h38.923a4.45,4.45,0,0,1,4.45,4.449h0A4.45,4.45,0,0,1,1893.431,887.685Z" transform="translate(-1469.648 -671.224)"/><path class="f" d="M1893.431,937.476h-38.923a4.45,4.45,0,0,1-4.449-4.45h0a4.45,4.45,0,0,1,4.449-4.449h38.923a4.45,4.45,0,0,1,4.45,4.449h0A4.45,4.45,0,0,1,1893.431,937.476Z" transform="translate(-1469.648 -705.491)"/><path class="s" d="M834.3,1234.506h15.67l-4.8-9.948H829.5Z" transform="translate(-767.288 -909.189)"/><path class="t" d="M810.782,1234.506h3.734l-4.8-9.948h-3.734Z" transform="translate(-751.104 -909.189)"/><g transform="translate(499.353 174.129)"><path class="u" d="M2341.61,1259.4a75.568,75.568,0,0,0-34.249,0l9.035-46.287S2338.956,1237.031,2341.61,1259.4Z" transform="translate(-2283.723 -1075.442)"/><g transform="translate(4.193 257.087)"><path class="v" d="M2257.13,1602.253s-7.023,11.906-9.989,13.851c-4.026,2.64-1.5,5.309.408,5.312s11.675.7,13.826-1.74,3.219-9.759,5.22-11.672,3.833-8.975-.975-11.37C2260.35,1594.007,2257.13,1602.253,2257.13,1602.253Z" transform="translate(-2244.994 -1596.117)"/></g><g transform="translate(9.655 256.98)"><path class="w" d="M2271.822,1595.775s-7.637,14.949-9.023,17.009,2.611,2.057,5.087,1.079,8.9-10.9,9.6-12.8a10.73,10.73,0,0,0,.191-4.663Z" transform="translate(-2262.514 -1595.775)"/></g><g transform="translate(24.68 265.488)"><path class="v" d="M2313.543,1623.061l-1.857,14.3-.984.043.306-10.284Z" transform="translate(-2310.702 -1623.061)"/></g><g transform="translate(71.957 243.064)"><path class="v" d="M2466.932,1559.691s-1.683,13.72-3.625,16.688c-2.636,4.028.742,5.468,2.5,4.706s10.983-4.021,11.981-7.119-.948-10.232.123-12.786-.072-9.758-5.436-10.033C2466.59,1550.846,2466.932,1559.691,2466.932,1559.691Z" transform="translate(-2462.336 -1551.14)"/></g><g transform="translate(74.959 243.071)"><path class="w" d="M2473.479,1552.932s-1.03,16.755-1.478,19.2,3.216.843,5.1-1.043,3.81-13.546,3.689-15.571a10.734,10.734,0,0,0-1.689-4.351Z" transform="translate(-2471.963 -1551.164)"/></g><g transform="translate(87.013 249.22)"><path class="v" d="M2511.331,1570.886l4.008,13.847-.884.433-3.828-9.55Z" transform="translate(-2510.626 -1570.886)"/></g><g transform="translate(0 49.635)"><path class="w" d="M2241.636,1175.761a41.644,41.644,0,0,0-.048,5.366c.084,1.351-2.153,9.347-2.519,10.358-.306.848-.719.161-.833-.5-.067-.377.266-3.278.211-4.893-.045-1.356-.27-1.927-.609-1.6a28,28,0,0,0-2.523,7.621c-.21,2.321-2.255,7.185-3.176,6.1s-.781-10.983.506-14.328a46.868,46.868,0,0,1,3.839-7.247Z" transform="translate(-2231.547 -1099.37)"/><path class="x" d="M2252.4,1009.069c.379-1.068,9.568-15.808,11.767-20.5s4.131-9.005,5.163-10.84c.068-.121.18-.333.329-.617.717-1.369,2.284-4.429,3.861-7.271l.332-.593.278-1.131c1.1-1.968.465-3.279.68-4.939a5.069,5.069,0,0,1,.5-1.616l.031-.063a37.478,37.478,0,0,0,2.737-6.349c1.1-4.486,6.392-24.4,6.392-24.4s-8.539,3.011-9.869,6.07c-2.017,4.641-4.39,11.633-5.039,13.794s-6.679,20.071-7.923,23.71a49.2,49.2,0,0,1-3.9,9.02c-1.385,2.328-11.383,23.414-12.086,25.33C2245.654,1008.676,2252.027,1010.136,2252.4,1009.069Z" transform="translate(-2241.255 -930.752)"/></g><g transform="translate(17.765 116.137)"><path class="y" d="M2317.993,1175.345c-.35,1.69-2.589,8.762-5.1,16.619h0c-2.286,7.164-4.795,14.979-6.3,19.966-.561,1.861-.983,3.328-1.2,4.22-1.443,5.9.18,15.168.7,22.908s-2.433,46.983-2.433,46.983c-1.968.918-14.6-.712-14.6-.712,1.443-2.755,1.892-52.121,1.1-55.138s-1.312-11.415-.525-14.7a12.765,12.765,0,0,0,.257-2.633c.067-4.141-.786-10.985-1.307-18.492-.656-9.448,3.017-32.934,3.542-35.034.048-.193.125-.465.223-.8.967-3.293,4.079-12.646,4.079-12.646,6.312-1.878,11.064-2.218,14.612-1.494a10.862,10.862,0,0,1,8.571,7.354C2322.715,1160.291,2318.447,1173.152,2317.993,1175.345Z" transform="translate(-2288.524 -1144.046)"/></g><g transform="translate(39.954 109.609)"><path class="y" d="M2403.524,1256.562l-10.118,8.2c-1.084-5.247-24.333-46.747-25.917-50.814s-3.272-11.94-3.272-14.827c0-.515-.037-1.385-.11-2.514-.281-4.376-1.082-12.627-2.23-19.051-.214-1.2-.44-2.333-.677-3.366-1.271-5.539-1.492-24.465-1.507-35.594-.007-4.953.027-8.362.027-8.362s.111-.088.316-.243c2.394-1.81,17.742-12.85,23.092-2.53a30.917,30.917,0,0,1,2.9,8.7c1.717,9.352.032,19.885-1.353,29.482-1.185,8.211-3.455,19.813-4.108,28.422-.36,4.737-.23,8.569.842,10.431,3.019,5.249,5.969,9.692,12.072,28.211C2395.463,1238.732,2403.524,1256.562,2403.524,1256.562Z" transform="translate(-2359.692 -1123.107)"/></g><g transform="translate(35.964)"><path class="z" d="M2347.142,792.756s-3.339-21.593,14.545-21.194,17.645,11.075,17.326,21.672-7.171,9.8.558,24.541-6.693,14.74-6.693,14.74l-11.19-15.378Z" transform="translate(-2346.896 -771.556)"/></g><g transform="translate(36.171 1.825)"><path class="w" d="M2360.187,777.662s-12.111,1.912-12.588,19.122,3.266,20.875,13.864,17.29,13.943-21.592,14.183-24.381S2376.521,775.59,2360.187,777.662Z" transform="translate(-2347.558 -777.41)"/></g><g transform="translate(21.608 43.888)"><path class="aa" d="M2349.309,930.37c.047,5.926-6.765,20.091-7.815,24.465s-2.711,5.774-1.312,11.373,5.738,24.538,5.564,26.2-26.493,10.017-44.9,6.654c0,0,7.163-26.735,7.689-29.8s-.638-14.54-.9-17.777-3.539-10.2-3.428-13.447c.112-3.305,1.736-6.159,4.006-9.689.7-1.094,1.443-2.209,2.182-3.293a62.4,62.4,0,0,1,5.99-7.84,18.987,18.987,0,0,1,2.411-1.924l.008,0a11.173,11.173,0,0,1,2.48-1.309l10.41-1.662s6.488,2.347,10.22,3.22C2341.917,915.54,2349.2,916.6,2349.309,930.37Z" transform="translate(-2300.849 -912.32)"/></g><g transform="translate(27.961 46.859)"><path class="aa" d="M2332.83,921.848l-6.033,9.509-5.569,8.776c.014-.047.384-1.376,1.013-5.224.12-.73.248-1.552.385-2.472a6.417,6.417,0,0,1,.175-.809h0c2.383-5.495,9.752-9.638,10.021-9.775Z" transform="translate(-2321.228 -921.848)"/></g><g transform="translate(41.324 30.484)"><path class="w" d="M2379.649,869.581c-1.05,1.982-2.158,14.288-2.158,14.288s-14.812,5.6-13.3,2.432a12.117,12.117,0,0,0,.9-4.91,23.829,23.829,0,0,0-.165-2.989c-.039-.324-.068-.51-.068-.51S2380.7,867.6,2379.649,869.581Z" transform="translate(-2364.085 -869.327)"/></g><g transform="translate(36.211 1.535)"><path class="z" d="M2355.336,789.372s6.215,10.119,11.872,14.1,2.789,7.171,2.789,7.171,14.76-31.074.727-33.225-22.638-2.311-23.036,18.724C2347.687,796.144,2354.061,789.213,2355.336,789.372Z" transform="translate(-2347.687 -776.48)"/></g><g transform="translate(42.171 38.29)"><path class="ab" d="M2375.25,894.366c-2.273,3.354-8.281,4.256-8.281,4.256h0a23.772,23.772,0,0,0-.165-2.989C2370.664,896.377,2375.25,894.366,2375.25,894.366Z" transform="translate(-2366.804 -894.366)"/></g><path class="x" d="M2325.063,931.57h0a12.429,12.429,0,0,0-.585,3.347l2.181-3.293s3.9-5.587,5.232-7.039a22.135,22.135,0,0,1,3.169-2.725S2327.393,925.543,2325.063,931.57Z" transform="translate(-2295.502 -874.997)"/><path class="w" d="M2409.123,1067.423a79.551,79.551,0,0,1-8.446,2.4c-4.066.861.136,5.734.136,5.734s7.044-.651,10.432-.981C2412.884,1074.414,2409.123,1067.423,2409.123,1067.423Z" transform="translate(-2346.724 -975.176)"/><path class="aa" d="M2413.441,940.622s9.507-3.729,12.32-3.946c0,0-1.912-15.267-11.251-13.649S2413.441,940.622,2413.441,940.622Z" transform="translate(-2354.404 -875.718)"/><path class="w" d="M2355.129,913.906s-6.98,10.733-4.617,11.67,15.153-1.251,20.59-11.445C2371.1,914.131,2362.971,909.962,2355.129,913.906Z" transform="translate(-2313.084 -868.356)"/><path class="x" d="M2388.548,914.577s-7.4,12.281-8.375,35.637,7.315,97.948,6.8,107.047l22.369-9.664s-8.432-61-11.23-72.632,6.04-26.931,7.023-44.021c0,0-.622-11.724-7.42-13.649S2388.548,914.577,2388.548,914.577Z" transform="translate(-2333.779 -869.985)"/><g transform="translate(39.805 47.309)"><path class="w" d="M2389.125,932.92s-1.672-11.279-9.937-9.42c-7.942,1.786-.5,16.575.084,18.326s6.465,16.053,6.976,17.927c1.613,5.926.1,6.065-2.325,7.464-7.164,4.125-21.892,3.854-23.59,4.988s-1.6,4.663,1.256,4.786c3.713.16,24.93-1.837,27.89-2.127,2.869-.281,8.584-.521,7.083-10.723C2395.55,957.27,2389.125,932.92,2389.125,932.92Z" transform="translate(-2359.214 -923.292)"/></g><path class="x" d="M2307.871,917.651s-7.872,13.061-8.282,28.533-14.818,81.4-13.3,115.165l-3.353-3.246a5.173,5.173,0,0,1-1.569-4.025c.579-9.7,3.139-46.743,9.472-67.037,7.33-23.489,1.169-39.06-.063-43.253s2.7-9.774,4.027-11.768S2299.281,920.849,2307.871,917.651Z" transform="translate(-2265.826 -872.101)"/><g transform="translate(31.367 73.467)"><path class="ac" d="M2359.972,1007.188l6.629,41.715-26.774,4.255-7.675-41.549Z" transform="translate(-2332.152 -1007.188)"/><path class="ad" d="M2363.039,1015.464l5.887,37.049-23.779,3.779-6.817-36.9Z" transform="translate(-2336.405 -1012.884)"/><path class="ac" d="M2372.311,1016.428l-.413-2.6-9.614,1.528.038,2.66Z" transform="translate(-2352.889 -1011.757)"/></g><path class="w" d="M2352.308,1066.023s-4.423.74-4.836.673-2.16-2.93-4.186-3.444-4.558-.91-5.182-1.3-.795,1.6,1.15,2.409,2.433,1.9-1.21,2.629c-2.015.4-9.549-.437-8.924.835.367.747,7.628,1.281,7.628,1.281s-7.834-.035-8.1.438c-.525.934,7.333,1.263,7.661,1.233,0,0-6.733.387-6.791.99-.073.752,6.746.432,6.684.555,0,0-5.352.369-5.3.825.07.6,4.781.672,5.694.564s10.141-1.157,11.687-1.465,4.162-.49,4.162-.49Z" transform="translate(-2298.356 -971.377)"/><path class="x" d="M2412.873,933.49s7.595,28.744,6.963,35.821-27.983,8.4-27.983,8.4v-7.447s14.317-3.178,17-6.465c1.4-1.711-7.948-23.561-7.948-23.561s-8.362-13.67-.436-17.151S2411.809,929.338,2412.873,933.49Z" transform="translate(-2341.872 -875.333)"/></g><g transform="translate(259.993 71.359)"><rect class="ae" width="13.87" height="58.326" transform="translate(22.228)"/><rect class="ae" width="13.87" height="58.327" transform="translate(58.327 22.228) rotate(90)"/></g><g transform="translate(38.864 117.975)"><path class="f" d="M801.868,594.64A33.095,33.095,0,1,0,773.56,654.47c.672.318,1.352.613,2.035.883a33.1,33.1,0,0,0,26.273-60.713Zm8.275,40.528a24.784,24.784,0,0,1-31.515,12.477q-.768-.3-1.526-.661a24.813,24.813,0,1,1,33.042-11.816Z" transform="translate(-754.611 -591.452)"/><g transform="translate(0 10.405)"><path class="af" d="M765.736,659.041l-7.337,3.845a33.141,33.141,0,0,1,5.217-38.063l6.03,5.68a24.851,24.851,0,0,0-3.91,28.537Z" transform="translate(-754.611 -624.823)"/></g><g transform="translate(3.788 44.622)"><path class="ag" d="M786.989,746.14l-3.033,7.709c-.683-.269-1.363-.564-2.035-.883a32.948,32.948,0,0,1-15.161-14.551l7.337-3.845a24.7,24.7,0,0,0,11.365,10.909Q786.219,745.837,786.989,746.14Z" transform="translate(-766.76 -734.57)"/></g><g transform="translate(20.984 56.192)"><path class="ag" d="M831.365,781.584a32.918,32.918,0,0,1-9.453-2.2l3.033-7.709a24.67,24.67,0,0,0,7.087,1.649Z" transform="translate(-821.912 -771.678)"/></g></g><g transform="translate(0 178.478)"><path class="ag" d="M691.76,812.913h-61.8v-1.228h60.571V785.5h1.228Z" transform="translate(-629.961 -785.504)"/></g><g transform="translate(0 191.874)"><rect class="f" width="32.53" height="7.37"/></g></g><g transform="translate(712.96 399.332)"><g transform="translate(0 0)"><g transform="translate(123.889 54.787)"><path class="w" d="M1448.6,1157.638s9.2-2.99,9.948-2.656.849.861,0,1.178-8.822,3.155-8.822,3.155,11.369-1.638,12.044-1.509c.4.076.649,1.082.207,1.295s-11.652,2.512-11.652,2.512,10.616-1.51,11.143-1.222a.8.8,0,0,1-.312,1.415c-.783.168-10.587,2.153-10.587,2.153s7.77-.59,8.066-.064c.182.322.44,1.178-1.567,1.265s-6.743.813-6.743.813Z" transform="translate(-1448.597 -1154.956)"/></g><g transform="translate(113.752 52.008)"><g transform="translate(0)"><path class="w" d="M1486.8,1155.656s2.977-1.183,3.19-3.062a11.422,11.422,0,0,1,1.915-4.189c.545-.817,1.358-3.936,2.312-3.271s-1.108,5.2-1.363,6.231,3.808-1.168,4.825-.969,3.785,7.326.845,8.5-6.729.43-7.212.743a19.436,19.436,0,0,1-2.111.945Z" transform="translate(-1486.798 -1145.042)"/></g></g><path class="ah" d="M1781.648,1861.744a39.664,39.664,0,0,1-3.421,5.345c-1.352,1.519-6.529,4.233-6.557,8.743-.03,4.891,8.727,3.534,12.152,3.355s3.684-2.792,5.126-5.561,2.9-2.3,3.166-4.533-1.4-7.348-1.4-7.348Z" transform="translate(-1745.214 -1608.821)"/><g transform="translate(78.069 251.652)"><path class="ah" d="M1577.208,1858.036s4.221,4.67,8.5,5.648,7.282,2.226,7.314,4.906-12.33,4.446-17.233,1.744c-7.317-4.032-8.061-2.817-8.873-4.832s.975-7.4.922-8.045C1567.778,1856.665,1577.208,1858.036,1577.208,1858.036Z" transform="translate(-1566.71 -1857.211)"/></g><g transform="translate(79.196 248.927)"><path class="ai" d="M1632.005,1848.806a19.193,19.193,0,0,1,.474,2.234c-.083.046-9.654,1.177-9.365-.579.235-1.424.57-2.972.57-2.972Z" transform="translate(-1623.108 -1847.49)"/></g><g transform="translate(36.056 250.624)"><path class="ai" d="M1785.321,1854.367a18.467,18.467,0,0,1,.323,2.138c-.078.05-9.706,1.754-9.652.021a8.3,8.3,0,0,1,.888-2.981Z" transform="translate(-1775.992 -1853.545)"/></g><g transform="translate(32.673 109.212)"><path class="aj" d="M1666.429,1359.168s3.482,33.506,5.292,44.976c2.117,13.411,2.834,24.492,3.425,31.433.742,8.731.886,51.678,1.405,54.231s-11.53.705-11.53.705-5.929-56.115-8.14-65.413c-2.059-8.658-9.7-45.933-11.581-43.568s-4.209,43.5-5.6,50.327-5.624,60.285-5.624,60.285-9.59,1.893-12.142-.247c0,0-1.161-46.069-.274-58.871.338-4.879-5.767-58.5,2.061-80.083C1627.859,1341.535,1666.429,1359.168,1666.429,1359.168Z" transform="translate(-1619.711 -1349.101)"/></g><g transform="translate(9.821 39.51)"><path class="ak" d="M1663.046,1143.532c-2.021,5.525,16.534,19.371,14.227,19.795s-2.207,4.8-2.207,4.8-17.477-15.219-17.117-19.7c.2-2.489,13.88-38.683,15.97-40.179,1.426-1.024,10.374-4.61,15.015-6.372a33.241,33.241,0,0,1,4.117-1.408c1.063-.067,14.152,1.188,14.152,1.188s1.877.643,3.8,1.524c3.275,1.5,8.378,3.852,12.04,5.6,1.185.563,2.663,1.325,3.894,1.975q-.225,6.674-.79,14.316s-.681,11.139-.744,22.386a51.684,51.684,0,0,0-.486,8.465c-.161,5.613.465,11.377.626,14.6.258,5.065.954,12.273.954,12.273l-6.365,2.6-27.885-.261-8.73-2.338s.518-22.423.389-28.941c-.123-6.281-1.443-22.592-1.7-23.535C1682.2,1130.306,1672.851,1116.727,1663.046,1143.532Z" transform="translate(-1657.944 -1100.462)"/></g><path class="al" d="M1695.447,1385.624s-19.155,1.631-35.931,0v5.5s24.983,2.386,36.771-1.05Z" transform="translate(-1617.917 -1266.173)"/><g transform="translate(61.193 41.501)"><path class="am" d="M1657.7,1115.775c-.147,4.523-.366,9.374-.751,14.568,0,0-.362,12.684-1.093,24.715a23.959,23.959,0,0,0-.234,5.288c.182,2.352.437,4.921.745,7.6,0,.035.007.069.01.1q.11.954.227,1.922c0,.01,0,.017,0,.028,1.629,13.4,4.386,28.782,5.826,33.434.3.972-.744,1.87-1.492,2.562l-5.239,3.3s-2.16-19.883-2.877-26.632c-.692-6.515-2.87-15.249-3.824-23.759v0c-1.209-10.8-2.874-21.375-3.772-27.659-2.338-16.36-5.453-23.681-5.453-23.681C1641.263,1108.007,1657.7,1115.775,1657.7,1115.775Z" transform="translate(-1639.775 -1107.563)"/></g><g transform="translate(0 40.237)"><path class="am" d="M1768.7,1143.964c-2.271,4.981,14.4,20.2,14.2,20.713-1.135,2.995-5.473,8.475-5.473,8.475s-25.814-27.728-25.474-31.142c.248-2.486,21.889-30.121,23.978-31.618,1.206-.866,10.147-4.035,14.534-5.764.8-.317,3.415-1.3,4.134-1.573.931,1.036,7.469,8.069,9.734,34.814.382,4.507-.824,14.052-1.629,21.844-.859,8.311-1.811,14.8-2.508,21.75-1.374,13.7-2.335,24.592-2.335,24.592l-13.629-6.068c-2.205-1.1-6.02-3.983-5.191-6.306,3.151-8.825,7.879-25.55,7.883-33.294,0,0-3.6-25.87-4.807-30.038C1782.125,1130.347,1771.245,1138.393,1768.7,1143.964Z" transform="translate(-1751.957 -1103.054)"/></g><g transform="translate(44.306 26.897)"><path class="an" d="M1730.542,1069.474a91.9,91.9,0,0,0-1.822-13.584c-.463-2.433,14.127,6.4,14.127,6.4s-.045.852-.074,2c-.016.608-.026,1.3-.021,1.99,0,.244,0,.487.01.727.014.643.043,1.259.1,1.782a8.383,8.383,0,0,0,.487,1.754C1743.948,1071.937,1735.456,1072.99,1730.542,1069.474Z" transform="translate(-1728.709 -1055.466)"/></g><path class="ao" d="M1734.894,1122.23l2.419,3.25a2.933,2.933,0,0,1-3.933.5Z" transform="translate(-1679.649 -1076.617)"/><path class="ao" d="M1710.794,1134.071s9.173,35.316,7.282,62.807l-3.087,5.439-2.888-5.7s-.792-49.173-3.307-62.635Z" transform="translate(-1653.777 -1085.076)"/><path class="an" d="M1740.847,1109.048l-2.59,3.029s-4.156-.805-5.376-2.976S1740.847,1109.048,1740.847,1109.048Z" transform="translate(-1683.012 -1066.464)"/><path class="ap" d="M1727.891,1101.965s-.3,2.309-3.184,5.681l3.147,4.227,1.7-8.77Z" transform="translate(-1669.462 -1062.033)"/><path class="ap" d="M1744.4,1094.127s5.144,6.217,9.346,7.878l-1.954,4.834-9.781-10.515Z" transform="translate(-1698.497 -1056.393)"/><g transform="translate(69.848 48.669)"><path class="am" d="M1557.36,1152.129s-22.17,24.085-27.4,22.8c-2.418-.595-6.082-4.77-9.109-8.695-1-1.292-1.977-2.649-2.908-3.991a.01.01,0,0,1,0-.006c-3.714-5.362-6.624-10.5-6.624-10.5s-10.977-12.864-2.168-18.6a15.062,15.062,0,0,1,5.846,1.042c2.16,1.1,6.671,10.635,7.441,12.314s6.76,13.513,7.319,13.864,6.442-3.181,9.587-5.3a116.07,116.07,0,0,0,11.466-9.382Z" transform="translate(-1505.725 -1133.132)"/></g><rect class="aq" width="8.959" height="6.796" transform="translate(54.447 119.744)"/><g transform="translate(42.979 4.094)"><path class="w" d="M1713.628,981.386s3.205,5.943,1.617,6.867c-1.312.764,1.538,6.6,1.911,7.549s-2.378,1.645-2.962,2.258-2.317,8.159-4.582,8.387-12.474-3.323-15.253-6.212-5.06-15.945-3.205-21.451S1707.971,971.005,1713.628,981.386Z" transform="translate(-1690.481 -974.126)"/></g><g transform="translate(40.264)"><path class="ar" d="M1724.2,972.163a9.13,9.13,0,0,0-2.671-11.179c-5.944-4.761-16.9,3.6-18.138,3.914s-8.243.8-4.7,13.1c3.039,10.567,3.463,11.011,3.463,11.011s2.268-6.121,3.552-7.054c2.007-1.457,6.407-1.107,6.407-1.107s-2.1-5.567,1.18-6.355S1720.888,970.933,1724.2,972.163Z" transform="translate(-1697.701 -959.521)"/></g><g transform="translate(46.236 15.428)"><path class="w" d="M1758.53,1017.273c-.289-.763-1.223-4.045-4.039-2.118s1.754,8.112,2.245,8.191S1760.962,1023.7,1758.53,1017.273Z" transform="translate(-1753.58 -1014.557)"/></g><path class="ab" d="M1740.813,1077.917c0,.244,0,.487.01.727-8.346-2.8-9.962-7.017-9.962-7.017,2.6,1.841,9.974,4.3,9.974,4.3C1740.819,1076.535,1740.809,1077.225,1740.813,1077.917Z" transform="translate(-1682.465 -1040.2)"/><path class="w" d="M1819.648,1322.287a2.933,2.933,0,0,0,1.627.655c1.445-.012,3.09-1.583,4.6-.156s-1.669,7.494-2.814,8.2-3.748-.567-6.534-3.933S1819.648,1322.287,1819.648,1322.287Z" transform="translate(-1791.71 -1220.521)"/><path class="w" d="M1783.244,1322.873a59.913,59.913,0,0,1,6.038,2.524c2.733,1.333,5.939,3.37,5.612,4.062-.5,1.051-2.934-.92-5.732-2.058-2.576-1.047-2.245-.4-2.245-.4s-.084-.188,2.5,1.506c2.779,1.822,5.687,3.894,5.43,4.467-.319.708-.418.77-1.535.276.581.424.547.645.393.907-.8,1.355-5.3-.677-7.086-1.485,1.369.629,2.306,1.239,1.282,1.753-1.172.588-7.406-2.577-9.747-3.493C1775.6,1329.926,1783.244,1322.873,1783.244,1322.873Z" transform="translate(-1749.658 -1221.014)"/><path class="am" d="M1847.21,1294.428s-.635,3.719-5.473,8.475c0,0-11.087-12.231-13.066-14.522l8.676-5.034Z" transform="translate(-1816.259 -1192.568)"/></g><g transform="translate(101.915 1.539)"><path class="w" d="M1300.3,1223.771s1.183-2.915-.442-3.31l-.613,2.619Z" transform="translate(-1223.271 -1148.85)"/><g transform="translate(53.927 237.068)"><g transform="translate(0.485 9.525)"><path class="y" d="M1312.524,1856.123s6.294,2.943,6.251,3.919-.959,2.342-1.692,2.309-10.829.194-11.775-.52-4.669-7.786-7.032-8.258a5.268,5.268,0,0,1-2.864-8.2C1298.145,1841.342,1308.267,1855.532,1312.524,1856.123Z" transform="translate(-1294.369 -1844.657)"/></g><g transform="translate(1.557 8.437)"><path class="w" d="M1317.961,1840.773s4.514,3.439,6.032,6.441,7.534,6.568,7.327,7.109-5.783.845-7.52-1.371-7.825-8.292-9.617-9.227-.306-1-.306-1Z" transform="translate(-1313.298 -1840.773)"/></g><g transform="translate(0)"><path class="w" d="M1367.19,1819.114s-2.873-5.955-3.1-7.941-5.788,2.115-1.506,10.31Z" transform="translate(-1360.97 -1810.678)"/></g><g transform="translate(1.85 16.792)"><path class="y" d="M1367.492,1870.637l1.465,9.369.976.043.1-7.82S1367.955,1870.216,1367.492,1870.637Z" transform="translate(-1367.492 -1870.579)"/></g></g><g transform="translate(31.32 99.348)"><path class="as" d="M1358.862,1344.748s6.564,31.785,8.637,39.616,4.031,19.462,4.261,24.068-1.267,9.213-1.382,11.631-3.455,45.834-3.455,45.834-7.455,1-8.376.307-6.019-35.547-4.292-49.251-1.612-17.619-6.219-24.069-12.322-30.863-12.092-33.742,3.8-35.469,3.8-35.469S1353.935,1305.3,1358.862,1344.748Z" transform="translate(-1335.94 -1319.402)"/></g><g transform="translate(11.075 246.552)"><path class="y" d="M1484.721,1848.824s4.941,8.375,7.028,9.744c2.832,1.857,1.057,3.735-.288,3.737s-8.213.493-9.726-1.225-2.264-6.865-3.672-8.21-2.7-6.313.686-8C1482.456,1843.024,1484.721,1848.824,1484.721,1848.824Z" transform="translate(-1476.602 -1844.508)"/></g><g transform="translate(13.096 246.477)"><path class="w" d="M1494.554,1844.24s5.373,10.516,6.348,11.965-1.837,1.447-3.579.759-6.263-7.665-6.755-9.005a7.548,7.548,0,0,1-.134-3.281Z" transform="translate(-1490.31 -1844.24)"/></g><g transform="translate(11.321 252.462)"><g transform="translate(0)"><path class="y" d="M1528.013,1865.588l1.306,10.056.692.031-.215-7.234Z" transform="translate(-1528.013 -1865.588)"/></g></g><g transform="translate(11.703 236.69)"><path class="w" d="M1518.138,1819.114a24.638,24.638,0,0,1,.251-7.889c.864-3.584-5.873-.993-5.873-.993s-.276,5.6,1.5,9.32S1518.138,1819.114,1518.138,1819.114Z" transform="translate(-1512.5 -1809.327)"/></g><g transform="translate(6.823 103.942)"><path class="as" d="M1447.266,1344.806s-.741,27.859,1.217,37.763,5.067,27.754,4.721,32.245-.51,7.932-1.958,11.631c-.85,2.171-4.118,18.886,1.092,50.882l6.736.306s4.609-32.993,5.531-42.206,2.994-15.2,2.994-18.08,7.831-27.409,7.485-38.119,2.89-32.984.011-38.579C1468.415,1327.669,1447.266,1344.806,1447.266,1344.806Z" transform="translate(-1447.128 -1335.792)"/></g><g transform="translate(19.492 48.299)"><path class="at" d="M1394.982,1137.3l-8.241,63.959,33.431-.629-1.928-56.262-8.873-6.1-.149,7.757-3.479-7.671-5.873,8.119Z" transform="translate(-1386.741 -1137.301)"/></g><g transform="translate(43.071 41.144)"><path class="au" d="M1379.976,1111.78s-5.442.777-7.428,2.5-8.9,3.542-8.9,3.542l11.142,5.959Z" transform="translate(-1363.652 -1111.78)"/></g><g transform="translate(13.814 19.337)"><path class="av" d="M1470.359,1033.989s-9.04.2-6.362,8.585,12.524,11.581,16.41,6.745S1470.359,1033.989,1470.359,1033.989Z" transform="translate(-1463.5 -1033.989)"/></g><g transform="translate(19.44 111.676)"><path class="aw" d="M1421.42,1367.473s-28.819,1.3-32.188.95,4.608-4.462,4.608-4.462l25.529-.581Z" transform="translate(-1388.403 -1363.381)"/></g><g transform="translate(20.786 1.505)"><path class="w" d="M1425.152,971.611s8.292,5.643,8.061,18.887-6.219,14.4-15.316,11.171-12.668-21.3-10.71-24.816S1413.751,967.926,1425.152,971.611Z" transform="translate(-1406.667 -970.377)"/></g><g transform="translate(0 39.129)"><path class="aa" d="M1456.607,1104.591s-4.606,3.685-6.794,4.261-10.364,4.031-10.94,5.873-10.941,31.669-10.825,33.4,35.239,27.754,36.046,27.869,5.3-6.334,5.3-6.334l-11.977-10.249s2.879-15.777,3.455-22.111.345-22.111-1.037-25.681A73.588,73.588,0,0,0,1456.607,1104.591Z" transform="translate(-1428.046 -1104.591)"/></g><g transform="translate(2.869 90.861)"><path class="aa" d="M1481.878,1289.127s.389,9.3-.532,12.413-5.643,29.251-6.1,30.172,14.165-.921,18.656-11.4,6.795-25.451,6.564-26.717S1481.878,1289.127,1481.878,1289.127Z" transform="translate(-1475.232 -1289.127)"/></g><g transform="translate(41.344 40.396)"><path class="aa" d="M1348.761,1109.109s8.753,14.741,8.753,25.336-2.985,18.08-2.759,22,3.22,30.748,6.329,37.312,9.9,9.9,9.9,9.9-6.1-14.856-7.37-27.178,2.3-44.452,2.3-44.452-.23-11.17-2.534-12.783-7.255-4.03-9.328-5.643S1348.761,1109.109,1348.761,1109.109Z" transform="translate(-1348.761 -1109.109)"/></g><g transform="translate(13.945 75.693)"><path class="ax" d="M1489.4,1252.554s-13.547-12.437-14.066-12.869,1.036-4.664,1.036-4.664Z" transform="translate(-1475.231 -1235.021)"/></g><g transform="translate(41.344 40.396)"><path class="ay" d="M1401.612,1109.109l.777,8.868,6.633,7.243-3.852-13.032Z" transform="translate(-1401.612 -1109.109)"/></g><g transform="translate(28.492 27.922)"><path class="w" d="M1435.274,1086.042l3.479,7.67.149-7.757-.778-8.867s-.672-.578-1-2.876a20.189,20.189,0,0,1-.169-3.211c.111-6.32.052-1.587.129-2.492.612-7.168-11.747-2.246-11.747-2.246s1.037,5.557,0,9.558S1435.274,1086.042,1435.274,1086.042Z" transform="translate(-1425.272 -1064.615)"/></g><g transform="translate(41.506 82.257)"><path class="az" d="M1385.474,1258.435s-7.485,8.522-7.946,9.616,13.992-6.622,13.992-6.622Z" transform="translate(-1377.517 -1258.435)"/></g><g transform="translate(40.581 57.02)"><path class="ba" d="M1418.478,1168.412c.155.23,3.846,5.244,1.856,15.282-1.64,8.272-2.219,24.434-2.466,31.336-.052,1.441-.089,2.482-.119,2.979l-.662-.04c.029-.488.067-1.526.118-2.962.248-6.917.828-23.117,2.479-31.441,1.929-9.732-1.157-15.08-1.206-15.154Z" transform="translate(-1417.087 -1168.412)"/></g><g transform="translate(30.452 85.251)"><path class="bb" d="M1361.068,1269.654s-.575,15.375-8.107,17.621-18.167,4.5-20.5,4.412-2.677,1.036-2.677,1.036,0,7.514.518,9.846,3.933,7.86,3.176,10.365-8.925,5.781-10.431,3.886,2.505-5.268,3.2-6.219-5.021-15.749-5.792-19.664-2.038-10.911,5.159-13.848,18.2-7.975,18.2-7.975Z" transform="translate(-1319.843 -1269.115)"/></g><g transform="translate(59.309 17.788)"><path class="w" d="M1305.548,1028.582s6.737,4.179,6.507,11.318-4.722,13.992-12.726,12.552-6.967-12.9-7.4-14.395S1292.19,1027.315,1305.548,1028.582Z" transform="translate(-1291.844 -1028.463)"/></g><g transform="translate(59.395 36.596)"><path class="w" d="M1321.39,1100.1c3.714,11.747,12.249,2.444,11.833,2.418-.09,0-.157-.124-.208-.306a7.13,7.13,0,0,1-.14-1.484c-.007-.394,0-.7,0-.7s-9.616-6.669-9.668-3.735S1321.39,1100.1,1321.39,1100.1Z" transform="translate(-1321.39 -1095.555)"/></g><g transform="translate(58.335 16.748)"><path class="bc" d="M1295.4,1043.374s1.307-4.566,3.106-5.489,2.476,1.3,3.513-.54,5.752-6.484,12.031-3.443c0,0,.694-8.13-8.922-9.051s-11.459,4.894-11.8,8.176S1294.4,1041.986,1295.4,1043.374Z" transform="translate(-1293.274 -1024.753)"/></g><g transform="translate(19.361)"><path class="av" d="M1417.969,992.932s-2.064-6.7-.568-8.946,2.532.092,5.641-2.228,13.886-1.191,14.774-4.232S1432.6,961.3,1419.7,966.021,1410.536,985.353,1417.969,992.932Z" transform="translate(-1411.193 -965.01)"/></g><g transform="translate(24.415 15.082)"><path class="w" d="M1474.106,1020.112c-.679-1.287-3.7-2.343-4.048.519s2.5,5.412,4.29,5.067S1474.6,1021.04,1474.106,1020.112Z" transform="translate(-1470.029 -1018.809)"/></g><g transform="translate(61.939 26.897)"><path class="w" d="M1345.258,1061.981c-.172-.655-2.13-1.937-2.936,0s1.1,4.816,2.538,3.549S1345.258,1061.981,1345.258,1061.981Z" transform="translate(-1342.13 -1060.955)"/></g><g transform="translate(49.315 41.052)"><path class="bd" d="M1300.151,1111.543c-.189-.4-2.444.443-4.463,3.454a22.987,22.987,0,0,0-3.138,9.156c-.259,1.641,2.965,11.228.662,16.67s-3.6,7.341-2.994,11.832,21.334,4.837,22.63,3.283,5.528-13.388,5.269-22.37,3.2-10.883,2.591-11.66-7.86-8.637-8.724-7.946S1304.124,1119.921,1300.151,1111.543Z" transform="translate(-1290.07 -1111.451)"/></g><g transform="translate(73.885 51.439)"><path class="au" d="M1197.147,1162.824c6.054,2.5,13.9,4.6,16.737,6.125a3.559,3.559,0,0,1,.883.611c1.468,1.554,3.973,5.441,7,5.614s3.8-3.8.864-7.255,1.986-2.418-.6-3.8c-2.42-1.291-4.314.734-6.383-.19a3.054,3.054,0,0,1-.441-.242c-2.246-1.468-9.674-6.478-12.956-8.032s-3.109-5.787-5.787-7.083c0,0-5.614-.95-5.96,4.146S1190.237,1159.973,1197.147,1162.824Z" transform="translate(-1190.389 -1148.502)"/></g><g transform="translate(97.376 66.647)"><path class="w" d="M1190.393,1207.992a3.567,3.567,0,0,1,.882.611c1.468,1.554,3.973,5.441,7,5.614s3.8-3.8.864-7.255,2.1-2.476-.6-3.8c-2.464-1.206-4.314.734-6.383-.19A9.044,9.044,0,0,0,1190.393,1207.992Z" transform="translate(-1190.389 -1202.754)"/></g><g transform="translate(36.219 101.945)"><path class="w" d="M1360.064,1331.47a2.7,2.7,0,0,0,2.578.715c1.785-.288,4.549-3.4,6.219-3.512s-1.209,1.958-1.267,2.821-.633,1.5.749,1.5,8.637-3.282,10.134-3.052.518.89.518.89,1.727-.487,1.842.665-6.794,5.355-7.543,5.528-6.622,1.67-10.941.518-7.025-1.843-7.025-1.843Z" transform="translate(-1355.329 -1328.667)"/></g><g transform="translate(16.641 93.226)"><path class="aa" d="M1452.749,1308.534s-4.433,6.506-5.3,6.334-19.406-14.182-19.406-14.182l11.475-3.121,1.251.72Z" transform="translate(-1428.046 -1297.565)"/></g><g transform="translate(29.886 31.782)"><path class="ab" d="M1431.6,1078.382s2.724,4.474,10.459,5.738h0a21.281,21.281,0,0,1-.168-3.263A20.13,20.13,0,0,1,1431.6,1078.382Z" transform="translate(-1431.601 -1078.382)"/></g><g transform="translate(62.197 38.968)"><path class="ab" d="M1322.182,1104.016s.758,5.022,8.823,4.289a7.121,7.121,0,0,1-.14-1.484S1325.114,1108.06,1322.182,1104.016Z" transform="translate(-1322.182 -1104.016)"/></g><path class="w" d="M1302.648,1224.585a9.064,9.064,0,0,1,.961,7.3c-1.283,3.965-5.365,6.083-5.335,5.509S1301.911,1228.064,1302.648,1224.585Z" transform="translate(-1226.281 -1151.818)"/><g transform="translate(24.418 39.129)"><path class="ay" d="M1442.356,1104.591l9.933,10.221-5.873,8.119-8.2-15.388Z" transform="translate(-1438.213 -1104.591)"/></g></g></g></g></svg>